<svg width="265" height="89" viewBox="0 -15 265 135" fill="none" xmlns="http://www.w3.org/2000/svg">
<path d="M41.9134 52.2L43.1614 69H57.7534L50.1694 4.296H32.4094L0.921375 69H15.7054L23.2894 52.2H41.9134ZM27.3214 41.64L33.7534 27.72C35.4814 23.976 37.3054 18.984 38.9374 15.048H39.1294C39.4174 18.984 39.8014 24.168 39.9934 27.72L41.3374 41.64H27.3214ZM73.6939 69L86.7499 0.839996H72.9259L59.8699 69H73.6939ZM110.14 20.904C93.4361 20.904 82.1081 34.344 82.1081 50.568C82.1081 62.28 90.0761 70.056 101.98 70.056C118.204 70.056 130.012 57.48 130.012 40.296C130.012 29.544 122.716 20.904 110.14 20.904ZM108.316 31.464C113.788 31.464 115.708 36.072 115.708 40.392C115.708 48.36 111.388 59.496 103.996 59.496C99.1001 59.496 96.4121 55.848 96.4121 50.376C96.4121 43.08 100.348 31.464 108.316 31.464ZM139.285 88.008L143.029 68.136H143.317C144.949 69.096 148.213 70.056 151.957 70.056C168.373 70.056 179.221 55.08 179.221 38.856C179.221 29.16 174.229 21 164.053 21C158.389 21 152.821 23.784 148.981 28.872H148.789L149.653 21.672H137.269C136.693 26.472 135.637 34.632 134.581 40.2L125.461 88.008H139.285ZM146.965 47.208C148.693 37.992 153.493 32.232 158.677 32.232C163.093 32.232 164.725 36.168 164.725 39.912C164.725 49.128 158.965 59.592 151.573 59.592C148.789 59.592 146.773 58.728 145.237 57.384L146.965 47.208ZM208.54 20.904C191.836 20.904 180.508 34.344 180.508 50.568C180.508 62.28 188.476 70.056 200.38 70.056C216.604 70.056 228.412 57.48 228.412 40.296C228.412 29.544 221.116 20.904 208.54 20.904ZM206.716 31.464C212.188 31.464 214.108 36.072 214.108 40.392C214.108 48.36 209.788 59.496 202.396 59.496C197.5 59.496 194.812 55.848 194.812 50.376C194.812 43.08 198.748 31.464 206.716 31.464ZM226.069 66.312C228.853 68.328 234.421 69.864 240.373 69.96C252.853 70.056 261.973 64.2 261.973 53.448C261.973 46.92 256.597 43.176 251.413 40.584C247.669 38.76 245.749 37.128 245.749 35.208C245.749 32.616 248.149 31.08 251.893 31.08C255.925 31.08 259.285 32.232 261.205 33.096L264.565 23.304C262.261 22.056 257.941 20.904 252.469 20.904C240.373 20.904 231.829 27.336 231.829 37.128C231.829 42.984 236.341 46.92 241.717 49.608C246.037 51.72 247.573 53.352 247.573 55.656C247.573 57.96 245.557 59.88 241.621 59.88C237.109 59.88 232.117 57.96 229.429 56.616L226.069 66.312Z" fill="#17986B"/>
</svg>
