<svg width="1040" height="1040" viewBox="0 0 1040 1040" fill="none" xmlns="http://www.w3.org/2000/svg">
<rect width="1040" height="1040" fill="white"/>
<path opacity="0.25" d="M377.8 205.078C377.8 205.078 248.4 270.922 184 372.59C119.6 474.258 124.6 604.945 203 701.809C281.4 798.674 431.2 786.066 556.6 847.507C682 908.948 820.4 896.339 879.8 766.052C939.2 635.765 849.6 587.133 834.4 436.432C819.2 285.732 683 65.3849 377.8 205.078Z" fill="black"/>
<path d="M359.8 571.723C343.4 563.717 326.6 556.913 309.2 551.309C284.2 543.704 254.8 550.709 254.2 558.914C253.6 567.32 258 563.517 263.8 572.523C269.6 581.529 267 602.543 275.4 621.756C283.8 640.969 308.6 650.575 308.6 650.575L359.8 571.723Z" fill="#F29627" stroke="#263339" stroke-linecap="round" stroke-linejoin="round"/>
<path opacity="0.3" d="M343.2 590.335C343.2 590.335 304.8 565.919 282.4 557.713C260 549.308 258.8 561.516 258.8 561.516C266.4 564.318 271.2 571.522 271 579.728C271 594.138 278.2 623.957 295.6 629.961C313 635.965 343.2 590.335 343.2 590.335Z" fill="#020202"/>
<path d="M617.181 617.383C627.196 613.576 632.009 601.778 627.93 591.032C623.851 580.287 612.424 574.662 602.409 578.469C592.393 582.276 587.58 594.074 591.66 604.82C595.739 615.565 607.165 621.19 617.181 617.383Z" fill="#F29627" stroke="#263339" stroke-linecap="round" stroke-linejoin="round"/>
<path d="M342 821.489L363.6 886.132C364.8 889.735 368.2 892.136 372 892.136H405.6C409.2 892.136 412.2 890.135 413.6 886.733L428.6 851.91" fill="#F29627"/>
<mask id="mask0_16_1611" style="mask-type:luminance" maskUnits="userSpaceOnUse" x="342" y="821" width="87" height="72">
<path d="M342 821.489L363.6 886.132C364.8 889.735 368.2 892.136 372 892.136H405.6C409.2 892.136 412.2 890.135 413.6 886.733L428.6 851.91" fill="white"/>
</mask>
<g mask="url(#mask0_16_1611)">
<path opacity="0.3" d="M352.8 821.489L370.6 886.132C371.2 889.535 374.2 891.936 377.6 892.136H405.4C408.6 891.936 411.2 889.935 412 886.733L424.4 851.91" fill="#020202"/>
</g>
<path d="M342 821.489L363.6 886.132C364.8 889.735 368.2 892.136 372 892.136H405.6C409.2 892.136 412.2 890.135 413.6 886.733L428.6 851.91" stroke="#263339" stroke-linecap="round" stroke-linejoin="round"/>
<path d="M504 821.489L482.4 886.132C481.2 889.735 477.8 892.136 474 892.136H440.4C436.8 892.136 433.8 890.135 432.4 886.733L417.4 851.91" fill="#263339"/>
<path d="M504 821.489L482.4 886.132C481.2 889.735 477.8 892.136 474 892.136H440.4C436.8 892.136 433.8 890.135 432.4 886.733L417.4 851.91" stroke="#263339" stroke-linecap="round" stroke-linejoin="round"/>
<path d="M575.4 821.489L553.8 886.132C552.6 889.735 549.2 892.136 545.4 892.136H511.8C508.2 892.136 505.2 890.135 503.8 886.733L488.8 851.91" fill="white"/>
<mask id="mask1_16_1611" style="mask-type:luminance" maskUnits="userSpaceOnUse" x="488" y="821" width="88" height="72">
<path d="M575.4 821.489L553.8 886.132C552.6 889.735 549.2 892.136 545.4 892.136H511.8C508.2 892.136 505.2 890.135 503.8 886.733L488.8 851.91" fill="white"/>
</mask>
<g mask="url(#mask1_16_1611)">
<path opacity="0.3" d="M560 821.489L545.2 886.132C544.4 889.735 542 892.136 539.4 892.136H516.4C514 892.136 511.8 890.135 510.8 886.733L496.6 852.51" fill="#020202"/>
</g>
<path d="M575.4 821.489L553.8 886.132C552.6 889.735 549.2 892.136 545.4 892.136H511.8C508.2 892.136 505.2 890.135 503.8 886.733L488.8 851.91" fill="#F29627"/>
<path d="M575.4 821.489L553.8 886.132C552.6 889.735 549.2 892.136 545.4 892.136H511.8C508.2 892.136 505.2 890.135 503.8 886.733L488.8 851.91" stroke="#263339" stroke-linecap="round" stroke-linejoin="round"/>
<path d="M460.2 864.118C562.152 864.118 644.8 789.12 644.8 696.606C644.8 604.092 562.152 529.094 460.2 529.094C358.248 529.094 275.6 604.092 275.6 696.606C275.6 789.12 358.248 864.118 460.2 864.118Z" fill="#F29627"/>
<path d="M460.2 864.118C562.152 864.118 644.8 789.12 644.8 696.606C644.8 604.092 562.152 529.094 460.2 529.094C358.248 529.094 275.6 604.092 275.6 696.606C275.6 789.12 358.248 864.118 460.2 864.118Z" stroke="#263339" stroke-linecap="round" stroke-linejoin="round"/>
<path d="M414.4 539.501C429.6 535.899 445.2 534.097 460.8 534.097C470.8 534.097 480.8 534.898 490.6 536.299" stroke="#263339" stroke-width="4" stroke-linecap="round" stroke-linejoin="round"/>
<path d="M496.4 656.379C496.4 656.379 514.4 644.171 515 621.756C515.6 599.341 486.2 566.719 462.6 553.31C439 539.901 421.6 542.503 421 552.11C420.4 561.716 412 572.523 408.8 591.136C405.6 609.748 404.4 637.166 429.2 646.172" stroke="#263339" stroke-linecap="round" stroke-linejoin="round"/>
<path opacity="0.3" d="M457.8 649.174L461.4 649.775C477.2 651.976 482.6 641.769 482.2 626.359C481.6 604.545 452.8 558.514 440.6 552.11C428.4 545.705 424.6 554.711 424.6 554.711C424.6 554.711 426.4 555.912 420.4 575.725C417.6 584.931 407.4 616.953 417.6 631.162C426.6 643.571 443.4 646.973 457.8 649.174Z" fill="#020202"/>
<path d="M508.8 627.16H508.6C507.6 626.959 507 626.159 507.2 625.158C507.4 623.757 507.4 622.556 507.6 621.156C508 609.148 498.2 591.936 482.2 576.126C481.6 575.525 481.6 574.324 482.2 573.724C482.8 573.124 484 573.124 484.6 573.724C501.6 590.535 511.4 608.147 511 621.156C511 622.556 510.8 623.957 510.6 625.559C510.4 626.559 509.6 627.16 508.8 627.16Z" fill="#263339"/>
<path d="M499.6 647.773C498.6 647.773 497.8 646.973 497.8 645.972C497.8 645.572 498 645.172 498.2 644.971C501 641.569 503.2 637.567 504.8 633.564C505.2 632.763 506.2 632.163 507 632.563C507.8 632.963 508.4 633.964 508 634.765C506.2 639.168 503.8 643.37 500.8 647.173C500.6 647.573 500.2 647.773 499.6 647.773Z" fill="#263339"/>
<path opacity="0.3" d="M375.518 728.803C380.572 708.533 362.949 686.678 336.155 679.988C309.361 673.298 283.542 684.307 278.488 704.577C273.434 724.846 291.058 746.702 317.852 753.391C344.646 760.081 370.464 749.073 375.518 728.803Z" fill="#020202"/>
<path d="M373.078 725.099C378.132 704.829 360.508 682.974 333.714 676.284C306.92 669.594 281.102 680.603 276.048 700.873C270.993 721.143 288.617 742.998 315.411 749.688C342.205 756.378 368.023 745.369 373.078 725.099Z" fill="#F29627" stroke="#263339" stroke-linecap="round" stroke-linejoin="round"/>
<path d="M309.4 707.013C309.8 711.616 308 715.418 305.4 715.619C302.8 715.819 300.6 712.216 300.2 707.613C299.8 703.01 301.6 699.208 304.2 699.007C306.8 699.007 309.2 702.41 309.4 707.013Z" stroke="#263339" stroke-linecap="round" stroke-linejoin="round"/>
<path d="M343.2 715.619C343.6 720.222 341.8 724.024 339.2 724.224C336.8 724.424 334.4 720.822 334 716.219C333.6 711.616 335.4 707.813 338 707.613C340.6 707.413 343 711.016 343.2 715.619Z" stroke="#263339" stroke-linecap="round" stroke-linejoin="round"/>
<path d="M399.2 727.427C398.8 730.629 398 734.031 397 737.033C387.2 763.451 351.8 775.058 316.6 763.651" stroke="#263339" stroke-width="3" stroke-linecap="round" stroke-linejoin="round"/>
<path d="M393.4 724.825H404.2" stroke="#263339" stroke-width="3" stroke-linecap="round" stroke-linejoin="round"/>
<path d="M324.2 653.977C323 658.981 320 662.583 317.4 661.783C314.8 661.182 313.6 656.579 315 651.576C316.2 646.573 319.2 642.97 321.8 643.571C324.2 644.371 325.4 648.974 324.2 653.977Z" fill="#263339" stroke="#263339" stroke-linecap="round" stroke-linejoin="round"/>
<path d="M355.575 660.667C356.765 655.724 355.641 651.213 353.064 650.592C350.486 649.97 347.432 653.473 346.242 658.416C345.051 663.359 346.175 667.87 348.752 668.492C351.33 669.114 354.384 665.61 355.575 660.667Z" fill="#263339" stroke="#263339" stroke-linecap="round" stroke-linejoin="round"/>
<path d="M402.6 842.303L421.4 886.933C422.8 890.135 426 892.336 429.6 892.336H463.8C467.4 892.336 470.4 890.335 471.8 887.133L492.2 839.701H491.4" fill="#F29627"/>
<path d="M402.6 842.303L421.4 886.933C422.8 890.135 426 892.336 429.6 892.336H463.8C467.4 892.336 470.4 890.335 471.8 887.133L492.2 839.701H491.4" stroke="#263339" stroke-linecap="round" stroke-linejoin="round"/>
<path d="M742.6 147.84L648.2 283.931C648.2 283.931 640.2 303.143 630.2 317.553C620.2 331.963 592.4 346.172 592.4 346.172C592.4 346.172 590 372.79 581.8 382.196C573.8 391.602 556.4 385.999 556.4 385.999C556.4 385.999 549 394.004 540.8 397.807C532.8 401.609 507.8 387.8 507.8 387.8C507.8 387.8 530.2 412.016 533.2 420.021C536.4 428.027 542 435.031 532 442.436C522 449.841 510.8 439.234 510.8 439.234C510.8 439.234 515.8 455.445 501.4 458.447C487 461.449 471.6 430.428 465.4 419.821C459.2 409.214 441.2 369.388 438 367.586C434.8 365.785 430.6 355.779 436.8 346.372C443 336.966 487 277.326 492 273.123C497 268.921 592 246.306 592 246.306L628 146.839" fill="white"/>
<mask id="mask2_16_1611" style="mask-type:luminance" maskUnits="userSpaceOnUse" x="433" y="146" width="310" height="313">
<path d="M742.6 147.84L648.2 283.931C648.2 283.931 640.2 303.143 630.2 317.553C620.2 331.963 592.4 346.172 592.4 346.172C592.4 346.172 590 372.79 581.8 382.196C573.8 391.602 556.4 385.999 556.4 385.999C556.4 385.999 549 394.004 540.8 397.807C532.8 401.609 507.8 387.8 507.8 387.8C507.8 387.8 530.2 412.016 533.2 420.021C536.4 428.027 542 435.031 532 442.436C522 449.841 510.8 439.234 510.8 439.234C510.8 439.234 515.8 455.445 501.4 458.447C487 461.449 471.6 430.428 465.4 419.821C459.2 409.214 441.2 369.388 438 367.586C434.8 365.785 430.6 355.779 436.8 346.372C443 336.966 487 277.326 492 273.123C497 268.921 592 246.306 592 246.306L628 146.839" fill="white"/>
</mask>
<g mask="url(#mask2_16_1611)">
<path opacity="0.2" d="M638.6 285.532C638.6 285.532 628.4 316.352 617.2 322.156C606.2 328.16 543 344.371 518.2 340.969C493.4 337.566 479.8 328.16 479.8 328.16C479.8 328.16 466.2 346.172 460.2 351.976C456 355.779 451 358.781 445.6 360.582C445.6 360.582 475.2 435.232 496.6 458.247C498.2 458.847 500 458.847 501.8 458.447C516 455.245 511.2 439.234 511.2 439.234C511.2 439.234 522.4 449.841 532.4 442.436C542.4 435.031 536.8 428.227 533.6 420.021C530.4 412.016 508 387.8 508 387.8C508 387.8 532.8 401.409 541 397.807C549 394.004 556.6 385.999 556.6 385.999C556.6 385.999 574 391.602 582 382.196C590 372.79 592.6 346.172 592.6 346.172C592.6 346.172 620.6 331.963 630.4 317.553C640.4 303.344 648.4 283.931 648.4 283.931L687.2 227.893L638.6 285.532Z" fill="#020202"/>
</g>
<path d="M742.6 147.84L648.2 283.931C648.2 283.931 640.2 303.143 630.2 317.553C620.2 331.963 592.4 346.172 592.4 346.172C592.4 346.172 590 372.79 581.8 382.196C573.8 391.602 556.4 385.999 556.4 385.999C556.4 385.999 549 394.004 540.8 397.807C532.8 401.609 507.8 387.8 507.8 387.8C507.8 387.8 530.2 412.016 533.2 420.021C536.4 428.027 542 435.031 532 442.436C522 449.841 510.8 439.234 510.8 439.234C510.8 439.234 515.8 455.445 501.4 458.447C487 461.449 471.6 430.428 465.4 419.821C459.2 409.214 441.2 369.388 438 367.586C434.8 365.785 430.6 355.779 436.8 346.372C443 336.966 487 277.326 492 273.123C497 268.921 592 246.306 592 246.306L628 146.839" stroke="#263339" stroke-linecap="round" stroke-linejoin="round"/>
<path d="M419.8 510.882L422.2 520.288L460.8 510.882L496.8 416.419L473.2 408.414L419.8 510.882Z" fill="white" stroke="#263339" stroke-linecap="round" stroke-linejoin="round"/>
<path d="M431.6 385.398L485 405.212L459 523.29L396.2 504.077L431.6 385.398Z" fill="white" stroke="#263339" stroke-linecap="round" stroke-linejoin="round"/>
<path d="M398.2 497.073L454 513.284L478.2 408.414L429.4 392.603L398.2 497.073Z" fill="#7FB927" stroke="#263339" stroke-linecap="round" stroke-linejoin="round"/>
<path d="M429.2 418.62C426.8 418.02 424.2 417.82 421.8 418.22L407.2 467.053C409.4 469.054 411.8 470.655 414.8 471.456C426.2 474.658 438.6 465.252 442.6 450.842C446.6 436.032 440.6 421.823 429.2 418.62Z" fill="white" stroke="#263339" stroke-linecap="round" stroke-linejoin="round"/>
<path d="M475.6 323.157C475.6 323.157 483 334.364 484.4 344.371C485.4 352.777 483.4 361.382 478.8 368.587C475 374.191 471.4 379.194 468.2 387.8C465 396.406 464.4 409.014 460.2 415.218C455.8 421.422 453.4 427.626 459.6 433.23C465.8 438.834 482 438.234 490.6 422.023C499.4 405.812 504.8 388.4 510.4 382.196C516 375.992 534 361.783 534 361.783C534 361.783 583 354.978 592.4 346.172C601.8 337.566 609.8 313.951 609.8 313.951" fill="white"/>
<mask id="mask3_16_1611" style="mask-type:luminance" maskUnits="userSpaceOnUse" x="455" y="313" width="155" height="124">
<path d="M475.6 323.157C475.6 323.157 483 334.364 484.4 344.371C485.4 352.777 483.4 361.382 478.8 368.587C475 374.191 471.4 379.194 468.2 387.8C465 396.406 464.4 409.014 460.2 415.218C455.8 421.422 453.4 427.626 459.6 433.23C465.8 438.834 482 438.234 490.6 422.023C499.4 405.812 504.8 388.4 510.4 382.196C516 375.992 534 361.783 534 361.783C534 361.783 583 354.978 592.4 346.172C601.8 337.566 609.8 313.951 609.8 313.951" fill="white"/>
</mask>
<g mask="url(#mask3_16_1611)">
<path opacity="0.2" d="M606.2 322.156C606.2 322.156 579.8 339.168 559.2 344.371C538.8 349.574 526 349.574 518.2 359.781C510.4 369.988 502.8 402.41 492.6 408.414C482.4 414.418 480.6 393.003 466.2 397.406L465.8 397.606C464.4 404.211 463.2 411.015 460.2 415.218C455.8 421.422 453.4 427.627 459.6 433.23C465.8 438.834 482 438.234 490.6 422.023C499.4 405.812 504.8 388.4 510.4 382.196C516 375.992 534 361.783 534 361.783C534 361.783 583 354.978 592.4 346.172C598 340.969 603.2 330.161 606.4 322.556L606.2 322.156Z" fill="#020202"/>
</g>
<path d="M475.6 323.157C475.6 323.157 483 334.364 484.4 344.371C485.4 352.777 483.4 361.382 478.8 368.587C475 374.191 471.4 379.194 468.2 387.8C465 396.406 464.4 409.014 460.2 415.218C455.8 421.422 453.4 427.626 459.6 433.23C465.8 438.834 482 438.234 490.6 422.023C499.4 405.812 504.8 388.4 510.4 382.196C516 375.992 534 361.783 534 361.783C534 361.783 583 354.978 592.4 346.172C601.8 337.566 609.8 313.951 609.8 313.951" stroke="#263339" stroke-linecap="round" stroke-linejoin="round"/>
<path d="M456.4 354.177C456.4 354.177 472.6 362.783 484.4 352.977" stroke="#263339" stroke-linecap="round" stroke-linejoin="round"/>
<path d="M511 439.434L496.8 412.016" stroke="#263339" stroke-linecap="round" stroke-linejoin="round"/>
<path d="M556.4 385.999C556.4 385.999 567.6 376.592 567 356.179" stroke="#263339" stroke-linecap="round" stroke-linejoin="round"/>
<path opacity="0.3" d="M587.4 581.929C598.2 603.344 603.8 627.16 603.8 651.176C603.8 743.637 521.2 818.687 419.2 818.687C381.2 818.887 344 808.08 312 787.667C334.4 817.687 367.6 840.702 406.6 851.909C409.4 852.71 412.2 853.51 415 854.111L416.8 859.314L426.2 886.733C427 889.735 429.8 891.936 433 892.136H461C464.2 891.936 466.8 889.935 467.6 886.933L475.2 863.517L476.8 858.914C479.2 858.714 481.8 858.514 484.2 858.114C572 847.707 639.8 779.461 639.8 697.006C639.8 651.976 619.6 611.349 587.4 581.929Z" fill="#020202"/>
<path d="M629.2 711.616C625.2 745.439 609.6 776.059 586.2 800.075" stroke="#263339" stroke-width="3" stroke-linecap="round" stroke-linejoin="round"/>
<path d="M626.2 659.581C629 670.789 630.2 682.396 630.2 694.004" stroke="#263339" stroke-width="3" stroke-linecap="round" stroke-linejoin="round"/>
<path d="M413.084 445.004L428.233 468.04L430.248 458.56L421.902 446.879L427.468 443.454L429.53 433.754L413.084 445.004Z" fill="black" stroke="black"/>
<path d="M408.633 447.515L383.506 463.832L393.647 465.988L406.571 457.214L409.349 461.491L418.828 463.506L408.633 447.515Z" fill="black" stroke="black"/>
<path d="M406.076 443.285L389.538 418.111L387.57 427.37L396.597 441.27L391.691 444.835L389.911 453.212L406.076 443.285Z" fill="black" stroke="black"/>
<path d="M410.053 439.752L434.75 424.105L425.289 422.008L411.88 431.154L409.37 426.704L400.552 424.83L410.053 439.752Z" fill="black" stroke="black"/>
<rect x="390.532" y="393" width="36" height="89" transform="rotate(16 390.532 393)" fill="#BFBFBF"/>
</svg>
