<svg width="1040" height="1040" viewBox="0 0 1040 1040" fill="none" xmlns="http://www.w3.org/2000/svg">
<rect width="1040" height="1040" fill="white"/>
<path opacity="0.25" d="M333.318 121.908C333.318 121.908 163.131 210.536 78.4322 347.383C-6.26654 484.231 0.309449 660.139 103.421 790.522C206.532 920.904 403.549 903.933 568.475 986.634C733.401 1069.34 915.424 1052.36 993.547 876.994C1071.67 701.625 953.828 636.164 933.837 433.317C913.846 230.47 734.716 -66.123 333.318 121.908Z" fill="black"/>
<path d="M682.27 197.948C681.046 196.922 679.498 196.364 677.896 196.4C676.06 196.436 674.278 195.662 673.054 194.276L672.856 193.646C672.784 193.43 672.568 193.304 672.334 193.358C672.118 193.43 671.992 193.646 672.046 193.88L679.336 218.504C678.778 218.18 678.148 217.982 677.5 217.892C675.916 217.73 674.314 218.036 672.874 218.738C669.598 220.268 667.744 223.238 668.752 225.38C669.616 227.216 672.316 227.846 675.106 227.018C675.574 226.874 676.024 226.712 676.474 226.496C677.932 225.848 679.192 224.804 680.092 223.49C680.866 222.464 681.064 221.114 680.614 219.908L675.502 202.664C676.744 203.726 678.328 204.302 679.966 204.284C681.91 204.266 683.764 205.13 685.006 206.642C685.096 206.732 685.204 206.75 685.33 206.732H685.402C685.528 206.66 685.582 206.516 685.546 206.372L683.728 200.288C683.494 199.37 682.99 198.56 682.252 197.966L682.27 197.948Z" fill="#FFDF43"/>
<path d="M380.068 283.952C378.844 282.926 377.296 282.368 375.694 282.404C373.858 282.44 372.076 281.666 370.852 280.28L370.654 279.65C370.582 279.434 370.366 279.308 370.132 279.362C369.916 279.434 369.79 279.65 369.844 279.884L377.134 304.508C376.576 304.184 375.946 303.986 375.298 303.896C373.714 303.734 372.112 304.04 370.672 304.742C367.396 306.272 365.542 309.242 366.55 311.384C367.414 313.22 370.114 313.85 372.904 313.022C373.372 312.878 373.822 312.716 374.272 312.5C375.73 311.852 376.99 310.808 377.89 309.494C378.664 308.468 378.862 307.118 378.412 305.912L373.3 288.668C374.542 289.73 376.126 290.306 377.764 290.288C379.708 290.27 381.562 291.134 382.804 292.646C382.894 292.736 383.002 292.754 383.128 292.736H383.2C383.326 292.664 383.38 292.52 383.344 292.376L381.526 286.292C381.292 285.374 380.788 284.564 380.05 283.97L380.068 283.952Z" fill="#FFDF43"/>
<path d="M737.674 331.49L733.066 317.396L731.356 312.14L731.23 311.87L716.866 316.532L716.992 316.82L718.702 322.076L722.914 334.982C721.348 334.316 719.566 334.442 718.108 335.288C715.714 336.476 714.4 338.744 715.174 340.31C715.804 341.678 717.874 342.074 719.944 341.39C720.268 341.264 720.592 341.12 720.898 340.94C723.274 339.752 724.588 337.52 723.85 335.972L719.89 323.858L733.066 319.556L736.63 330.446C736.216 330.212 735.748 330.068 735.262 330.032C734.074 329.942 732.904 330.194 731.842 330.752C729.43 331.958 728.134 334.208 728.908 335.774C729.538 337.142 731.608 337.538 733.678 336.854C734.002 336.728 734.326 336.584 734.632 336.404C737.08 335.288 738.376 333.074 737.656 331.508L737.674 331.49ZM719.764 323.3L719.296 321.896L732.472 317.594L732.94 318.998L719.764 323.3Z" fill="#FFDF43"/>
<path d="M503.062 185.96L498.454 171.866L496.744 166.61L496.618 166.34L482.254 171.002L482.38 171.29L484.09 176.546L488.302 189.452C486.736 188.786 484.954 188.912 483.496 189.758C481.102 190.946 479.788 193.214 480.562 194.78C481.192 196.148 483.262 196.544 485.332 195.86C485.656 195.734 485.98 195.59 486.286 195.41C488.662 194.222 489.976 191.99 489.238 190.442L485.278 178.328L498.454 174.026L502.018 184.916C501.604 184.682 501.136 184.538 500.65 184.502C499.462 184.412 498.292 184.664 497.23 185.222C494.818 186.428 493.522 188.678 494.296 190.244C494.926 191.612 496.996 192.008 499.066 191.324C499.39 191.198 499.714 191.054 500.02 190.874C502.468 189.758 503.764 187.544 503.044 185.978L503.062 185.96ZM485.152 177.77L484.684 176.366L497.86 172.064L498.328 173.468L485.152 177.77Z" fill="#FFDF43"/>
<path d="M506.122 276.662C508.606 283.178 515.176 286.742 520.756 284.6C526.336 282.458 528.874 275.438 526.372 268.922C523.888 262.406 517.318 258.842 511.738 260.984C506.14 263.126 503.62 270.146 506.122 276.662Z" fill="#407BFF"/>
<path opacity="0.7" d="M506.122 276.662C508.606 283.178 515.176 286.742 520.756 284.6C526.336 282.458 528.874 275.438 526.372 268.922C523.888 262.406 517.318 258.842 511.738 260.984C506.14 263.126 503.62 270.146 506.122 276.662Z" fill="white"/>
<path d="M509.758 275.276C511.612 280.136 516.508 282.782 520.684 281.198C524.86 279.596 526.732 274.376 524.878 269.498C523.024 264.62 518.128 261.974 513.952 263.576C509.776 265.178 507.904 270.398 509.758 275.276Z" fill="#1F042F"/>
<path d="M531.862 234.992C529.144 231.662 519.406 230.762 514.366 236.576C508.984 242.768 501.928 254.396 498.13 250.958C499.102 254.72 502.324 257.492 506.194 257.906C506.194 257.906 501.838 262.1 496.708 260.12C498.22 265.484 502.666 269.516 508.138 270.506C517.048 272.378 531.124 247.484 533.374 243.398C533.662 238.772 533.338 238.934 531.862 234.992Z" fill="#263238"/>
<path d="M537.352 236.486C545.38 236.018 553.228 238.916 559.042 244.46C562.804 248.132 565.594 252.83 563.884 258.158C559.888 269.084 555.28 279.794 550.078 290.198L513.844 258.5C513.844 258.5 514.456 246.206 520.936 240.626C524.41 237.764 531.412 236.774 537.352 236.486Z" fill="#263238"/>
<path d="M530.44 235.64C530.44 235.64 544.66 226.784 561.958 241.4C579.256 256.016 559.492 279.308 559.492 279.308C559.492 279.308 552.994 289.748 557.944 292.718C556.036 293.33 554.038 293.528 552.058 293.312C552.058 293.312 553.606 296.696 555.874 296.624C555.874 296.624 552.652 297.668 547.234 294.824C541.816 291.98 530.44 235.64 530.44 235.64Z" fill="#263238"/>
<path d="M527.164 300.116L527.11 300.26L527.668 307.928C527.452 310.646 526.786 313.31 525.688 315.794C524.122 318.242 530.476 319.7 535.282 320.456C542.5 321.608 550.06 317 551.122 313.904C549.628 303.428 549.016 291.386 551.302 282.098L541.402 289.514L527.128 300.116H527.164Z" fill="#EBB376"/>
<g opacity="0.2">
<path d="M527.2 300.314L527.776 307.982C532.672 306.776 538.216 303.212 540.196 298.64C541.618 295.328 540.664 291.782 539.296 291.332L527.218 300.332L527.2 300.314Z" fill="black"/>
</g>
<path d="M511.846 281.558C511.972 283.232 512.152 284.888 512.422 286.544C514.312 301.016 530.998 305.426 543.328 297.362C544.444 296.624 545.506 295.814 546.496 294.896C554.776 287.408 554.38 280.37 556.234 264.944C557.782 253.352 549.628 242.696 538.036 241.148C534.76 240.716 531.412 241.04 528.28 242.138C514.168 246.872 510.514 264.872 511.828 281.558H511.846Z" fill="#EBB376"/>
<path d="M556.144 266.33C556.144 266.33 551.518 265.682 550.564 269.588C549.628 273.494 549.916 274.07 549.916 274.07L544.264 274.178C544.264 274.178 548.692 259.472 544.696 258.914C540.7 258.356 546.28 252.398 544.084 250.976C538.864 247.592 523.654 244.568 516.004 252.632C518.182 247.268 522.232 242.912 527.416 240.338C535.606 236.828 550.384 238.574 554.938 246.872C559.474 255.17 556.144 266.33 556.144 266.33Z" fill="#263238"/>
<path d="M532.528 271.1C532.456 272.504 531.664 273.62 530.746 273.566C529.828 273.512 529.126 272.324 529.198 270.92C529.27 269.516 530.062 268.4 530.98 268.454C531.898 268.508 532.6 269.696 532.528 271.1Z" fill="#263238"/>
<path d="M518.668 270.74C518.596 272.144 517.804 273.26 516.886 273.206C515.968 273.152 515.266 271.964 515.32 270.56C515.374 269.156 516.184 268.04 517.102 268.094C518.02 268.148 518.722 269.336 518.65 270.74H518.668Z" fill="#263238"/>
<path d="M523.204 270.164C523.204 270.164 519.694 275.15 517.714 278.336C517.174 279.2 517.516 280.406 518.488 280.748C520.252 281.342 522.178 280.982 522.178 280.982L523.222 270.164H523.204Z" fill="#D58745"/>
<path d="M536.29 264.602C536.074 264.674 535.822 264.638 535.624 264.476C533.374 262.55 531.016 263.198 530.998 263.198C530.638 263.306 530.278 263.09 530.17 262.748C530.062 262.406 530.278 262.028 530.62 261.938C530.746 261.902 533.698 261.092 536.488 263.486C536.758 263.72 536.794 264.134 536.56 264.422C536.488 264.512 536.38 264.566 536.29 264.602Z" fill="#263238"/>
<path d="M526.588 285.68C528.874 285.806 530.71 284.744 532.564 283.124" stroke="#263238" stroke-width="0.75" stroke-linecap="round" stroke-linejoin="round"/>
<path d="M560.536 275.078C559.168 278.858 556.18 281.63 553.156 282.962C548.602 284.96 547.18 280.028 547.81 275.366C548.386 271.154 549.844 266.078 554.722 266.042C559.51 266.006 562.102 270.758 560.536 275.078Z" fill="#EBB376"/>
<path opacity="0.2" d="M557.314 270.812C556.756 269.894 555.55 269.516 554.488 269.714C553.426 269.93 552.544 270.632 551.86 271.46C551.05 272.468 550.51 273.674 550.312 274.952" stroke="black" stroke-width="0.5" stroke-linecap="round" stroke-linejoin="round"/>
<path d="M512.818 264.494C512.692 264.458 512.584 264.386 512.494 264.296C512.242 264.026 512.278 263.594 512.548 263.36C515.266 260.912 518.2 261.722 518.344 261.74C518.704 261.83 518.902 262.208 518.812 262.55C518.722 262.91 518.362 263.108 518.002 263.018C517.876 262.982 515.608 262.388 513.43 264.35C513.268 264.512 513.034 264.548 512.818 264.494Z" fill="#263238"/>
<path d="M545.128 271.91C543.076 278.588 546.064 285.41 551.788 287.174C557.512 288.938 563.812 284.942 565.864 278.264C567.916 271.586 564.928 264.764 559.204 263C553.48 261.236 547.18 265.232 545.128 271.91Z" fill="#407BFF"/>
<path opacity="0.7" d="M545.128 271.91C543.076 278.588 546.064 285.41 551.788 287.174C557.512 288.938 563.812 284.942 565.864 278.264C567.916 271.586 564.928 264.764 559.204 263C553.48 261.236 547.18 265.232 545.128 271.91Z" fill="white"/>
<path d="M548.836 273.044C547.306 278.03 549.538 283.124 553.804 284.438C558.07 285.752 562.786 282.782 564.298 277.796C565.81 272.81 563.596 267.716 559.33 266.402C555.064 265.088 550.348 268.058 548.836 273.044Z" fill="#1F042F"/>
<path d="M531.7 234.902C531.7 233.228 537.55 232.616 538.414 232.976C538.414 232.976 564.406 235.874 560.158 272.684L554.722 272.792C554.722 272.792 561.796 239.24 531.682 234.902H531.7Z" fill="#1F042F"/>
<path d="M405.934 418.196C406.528 417.206 429.622 388.982 437.992 380.216C446.362 371.45 469.186 346.934 469.186 346.934L486.322 364.574L455.974 393.554L417.598 424.73L405.952 418.214L405.934 418.196Z" fill="#EBB373"/>
<path d="M425.734 433.622C424.366 432.704 424.816 430.328 423.268 427.664C421.72 425 417.958 423.452 417.958 423.452C417.958 423.452 417.292 422.066 417.4 421.958C417.49 421.868 405.952 418.196 405.952 418.196C405.952 418.196 400.012 421.238 399.364 421.706C396.178 424.118 386.638 432.524 385.432 434.63L385.396 434.684C384.64 436.052 385.828 437.69 387.376 437.438L387.952 437.258C388.564 439.238 391.858 437.78 391.858 437.78C395.8 439.796 397.51 437.204 397.51 437.204C397.51 437.204 397.888 438.644 400.75 438.464C402.208 438.374 409.264 431.984 409.552 431.804C409.822 431.624 415.564 430.58 415.564 430.58C418.858 434.054 423.304 436.178 425.212 435.8C427.138 435.44 427.138 434.522 425.77 433.604L425.734 433.622Z" fill="#EBB373"/>
<g opacity="0.3">
<path d="M399.292 429.932C396.178 432.65 394.846 434.594 392.038 437.744C392.038 437.744 392.758 435.8 394.612 433.73C396.826 431.264 399.292 429.95 399.292 429.95V429.932Z" fill="black"/>
</g>
<g opacity="0.3">
<path d="M404.638 429.626C401.524 432.344 400.192 434.288 397.384 437.438C397.384 437.438 398.104 435.494 399.958 433.424C402.172 430.958 404.638 429.644 404.638 429.644V429.626Z" fill="black"/>
</g>
<g opacity="0.3">
<path d="M395.476 428.816C392.848 431.642 390.76 434.144 387.934 437.294C387.934 437.294 389.878 434.198 391.426 432.326C392.974 430.454 395.476 428.816 395.476 428.816Z" fill="black"/>
</g>
<path opacity="0.3" d="M421.702 421.364L415.06 421.94L418.696 423.812L421.702 421.364Z" fill="black"/>
<path d="M521.908 312.05C522.232 312.05 529.234 310.646 529.234 310.646L550.312 311.42C550.312 311.42 561.202 311.69 560.986 311.996C560.77 312.32 549.898 334.784 549.898 334.784L537.802 333.002C537.802 333.002 524.392 329.042 525.04 328.808C525.688 328.574 521.908 312.068 521.908 312.068V312.05Z" fill="#EBB373"/>
<path d="M569.266 321.446L586.636 306.11L607.12 291.764L599.146 245L610.018 239.114C610.018 239.114 634.462 292.754 628.972 302.294C623.482 311.834 583.594 344.738 583.594 344.738L569.266 321.41V321.446Z" fill="#EBB373"/>
<path d="M608.848 228.386C607.12 225.398 604.762 221.528 603.088 221.33C601.432 221.132 601.126 222.464 600.1 222.608C599.074 222.752 597.634 221.726 596.068 224.084C596.068 224.084 592.234 223.058 591.478 225.776C588.94 226.334 588.436 227.936 589.21 230.618C589.426 231.248 591.442 234.686 591.604 235.352C591.334 235.244 588.472 231.644 588.094 231.572C584.962 230.978 583.504 231.59 583.648 233.012C583.72 233.75 584.242 234.344 584.926 234.632C586.6 235.298 587.914 241.58 589.858 242.426C591.496 243.146 597.13 245.216 599.38 245.504C601.648 245.81 610.288 242.282 610.288 242.282C610.288 242.282 610.558 231.356 608.812 228.368L608.848 228.386Z" fill="#EBB373"/>
<path d="M592.018 227.18C593.116 229.844 594.394 232.886 596.518 235.118C597.004 235.64 597.598 236.09 598.282 236.27C598.966 236.432 599.794 236.216 600.172 235.622C600.496 235.118 600.46 234.47 600.334 233.876C600.1 232.778 599.632 231.752 599.164 230.744C598.39 229.07 597.634 227.396 596.86 225.704" stroke="#D58745" stroke-width="0.5" stroke-linecap="round" stroke-linejoin="round"/>
<path d="M600.406 233.534C601.306 233.84 602.692 233.21 603.052 232.328C603.412 231.446 603.286 230.456 603.106 229.52C602.764 227.9 602.224 226.334 601.504 224.84" stroke="#D58745" stroke-width="0.5" stroke-linecap="round" stroke-linejoin="round"/>
<path d="M603.286 231.374C603.772 231.698 604.816 231.914 605.302 231.59C605.788 231.266 606.112 230.744 606.328 230.204C606.832 228.926 606.814 227.45 606.274 226.172" stroke="#D58745" stroke-width="0.5" stroke-linecap="round" stroke-linejoin="round"/>
<path d="M592.126 236.396C595.744 235.676 599.704 237.296 601.792 240.32" stroke="#D58745" stroke-width="0.5" stroke-linecap="round" stroke-linejoin="round"/>
<path opacity="0.3" d="M607.12 291.782C607.12 291.782 611.566 294.086 614.5 296.156C614.5 296.156 610.63 289.694 606.76 289.694L607.12 291.764V291.782Z" fill="black"/>
<path d="M554.074 311.186L576.772 308.936L595.33 299.63L609.46 333.056L581.074 350.426L581.29 449.966H490.354L493.36 368.12L481.228 380.882L457.504 354.35C457.504 354.35 487.96 318.764 495.052 316.568L522.646 311.438C522.646 311.438 526.588 322.058 539.602 320.96C549.736 320.114 554.074 311.168 554.074 311.168V311.186Z" fill="black"/>
<g opacity="0.3">
<path d="M493.288 368.894C493.288 368.894 494.26 349.076 493.288 339.176C493.288 339.176 486.466 354.386 493.288 368.894Z" fill="#3A527C"/>
</g>
<path opacity="0.3" d="M581.074 350.426V328.754C581.074 328.754 587.374 340.436 581.074 350.426Z" fill="#94AAD3"/>
<path d="M861.136 692.534H176.308V717.554H861.136V692.534Z" fill="#263238"/>
<path opacity="0.3" d="M861.136 692.534H176.308V717.554H861.136V692.534Z" fill="#263238"/>
<path d="M675.016 435.782H556.252V450.758H675.016V435.782Z" fill="#263238"/>
<path opacity="0.2" d="M675.016 435.782H556.252V450.758H675.016V435.782Z" fill="white"/>
<path d="M482.56 435.782H363.796V450.758H482.56V435.782Z" fill="#263238"/>
<path opacity="0.2" d="M482.56 435.782H363.796V450.758H482.56V435.782Z" fill="white"/>
<path d="M834.892 481.142H689.146V694.352H834.892V481.142Z" fill="#263238"/>
<path opacity="0.3" d="M714.112 481.142H695.104V694.352H714.112V481.142Z" fill="black"/>
<path opacity="0.3" d="M800.868 540.191C803.081 525.696 793.125 512.151 778.629 509.938C764.134 507.725 750.589 517.682 748.377 532.177C746.164 546.673 756.12 560.217 770.616 562.43C785.111 564.643 798.655 554.686 800.868 540.191Z" fill="black"/>
<path opacity="0.3" d="M774.646 569.666C793.196 569.666 808.234 554.628 808.234 536.078C808.234 517.528 793.196 502.49 774.646 502.49C756.096 502.49 741.058 517.528 741.058 536.078C741.058 554.628 756.096 569.666 774.646 569.666Z" stroke="black" stroke-miterlimit="10"/>
<path d="M785.068 536.222C785.068 541.982 780.388 546.662 774.628 546.662C768.868 546.662 764.188 541.982 764.188 536.222C764.188 530.462 768.868 525.782 774.628 525.782C780.388 525.782 785.068 530.462 785.068 536.222Z" fill="#FFF800"/>
<path opacity="0.3" d="M802.755 662.967C818.283 647.439 818.283 622.264 802.755 606.736C787.227 591.207 762.051 591.208 746.523 606.736C730.995 622.264 730.995 647.439 746.523 662.967C762.051 678.496 787.227 678.496 802.755 662.967Z" fill="black"/>
<path opacity="0.3" d="M823.578 646.383C830.038 619.369 813.376 592.233 786.363 585.772C759.349 579.312 732.213 595.974 725.752 622.987C719.292 650.001 735.954 677.137 762.967 683.598C789.981 690.058 817.117 673.397 823.578 646.383Z" stroke="black" stroke-miterlimit="10"/>
<path d="M785.687 645.899C791.789 639.798 791.789 629.905 785.687 623.804C779.586 617.702 769.693 617.702 763.592 623.804C757.49 629.905 757.49 639.798 763.592 645.899C769.693 652.001 779.586 652.001 785.687 645.899Z" fill="#FFF800"/>
<path d="M201.49 694.352H347.236V481.142H201.49L201.49 694.352Z" fill="#263238"/>
<path opacity="0.3" d="M322.288 694.352H341.296V481.142H322.288V694.352Z" fill="black"/>
<path opacity="0.3" d="M266.041 562.43C280.509 560.042 290.301 546.379 287.914 531.911C285.527 517.444 271.863 507.651 257.396 510.038C242.928 512.425 233.135 526.089 235.523 540.556C237.91 555.024 251.573 564.817 266.041 562.43Z" fill="black"/>
<path opacity="0.3" d="M261.754 569.666C280.304 569.666 295.342 554.628 295.342 536.078C295.342 517.528 280.304 502.49 261.754 502.49C243.204 502.49 228.166 517.528 228.166 536.078C228.166 554.628 243.204 569.666 261.754 569.666Z" stroke="black" stroke-miterlimit="10"/>
<path d="M251.314 536.222C251.314 541.982 255.994 546.662 261.754 546.662C267.514 546.662 272.194 541.982 272.194 536.222C272.194 530.462 267.514 525.782 261.754 525.782C255.994 525.782 251.314 530.462 251.314 536.222Z" fill="#FFF800"/>
<path opacity="0.3" d="M298.326 650.487C306.956 630.293 297.582 606.928 277.388 598.298C257.195 589.668 233.83 599.042 225.2 619.235C216.57 639.429 225.944 662.794 246.137 671.424C266.33 680.054 289.696 670.68 298.326 650.487Z" fill="black"/>
<path opacity="0.3" d="M308.426 653.371C318.755 627.588 306.226 598.313 280.442 587.985C254.658 577.656 225.384 590.185 215.055 615.969C204.727 641.753 217.256 671.027 243.04 681.356C268.823 691.684 298.098 679.155 308.426 653.371Z" stroke="black" stroke-miterlimit="10"/>
<path d="M276.132 640.978C279.502 633.035 275.795 623.863 267.851 620.493C259.908 617.123 250.736 620.83 247.366 628.774C243.996 636.717 247.703 645.889 255.647 649.259C263.59 652.629 272.762 648.922 276.132 640.978Z" fill="#FFDF43"/>
<path d="M700.288 448.022H338.398V692.534H700.288V448.022Z" fill="#263238"/>
<path opacity="0.2" d="M682.738 466.454H361.348V682.562H682.738V466.454Z" fill="white"/>
<path d="M504.772 439.094H489.256V449.498H504.772V439.094Z" fill="#263238"/>
<path d="M515.392 441.164H507.454V449.498H515.392V441.164Z" fill="#263238"/>
<path d="M527.92 441.164H519.982V449.498H527.92V441.164Z" fill="#263238"/>
<path opacity="0.2" d="M414.754 664.13H371.32V674.12H414.754V664.13Z" fill="white"/>
<path opacity="0.2" d="M414.754 648.848H371.32V658.838H414.754V648.848Z" fill="white"/>
<path opacity="0.2" d="M414.754 633.584H371.32V643.574H414.754V633.584Z" fill="white"/>
<path opacity="0.2" d="M414.754 618.302H371.32V628.292H414.754V618.302Z" fill="white"/>
<path opacity="0.2" d="M414.754 587.738H371.32V597.728H414.754V587.738Z" fill="white"/>
<path opacity="0.2" d="M414.754 572.474H371.32V582.464H414.754V572.474Z" fill="white"/>
<path opacity="0.2" d="M414.754 557.192H371.32V567.182H414.754V557.192Z" fill="white"/>
<path opacity="0.2" d="M414.754 603.02H371.32V613.01H414.754V603.02Z" fill="white"/>
<path opacity="0.2" d="M467.278 664.13H423.844V674.12H467.278V664.13Z" fill="white"/>
<path opacity="0.2" d="M467.278 648.848H423.844V658.838H467.278V648.848Z" fill="white"/>
<path opacity="0.2" d="M467.278 633.584H423.844V643.574H467.278V633.584Z" fill="white"/>
<path opacity="0.2" d="M467.278 618.302H423.844V628.292H467.278V618.302Z" fill="white"/>
<path opacity="0.2" d="M467.278 603.02H423.844V613.01H467.278V603.02Z" fill="white"/>
<path opacity="0.2" d="M467.278 587.738H423.844V597.728H467.278V587.738Z" fill="white"/>
<path opacity="0.2" d="M467.278 572.474H423.844V582.464H467.278V572.474Z" fill="white"/>
<path opacity="0.2" d="M467.278 557.192H423.844V567.182H467.278V557.192Z" fill="white"/>
<path opacity="0.2" d="M467.278 541.19H423.844V551.18H467.278V541.19Z" fill="white"/>
<path opacity="0.2" d="M467.278 525.17H423.844V535.16H467.278V525.17Z" fill="white"/>
<path opacity="0.2" d="M467.278 509.168H423.844V519.158H467.278V509.168Z" fill="white"/>
<path opacity="0.2" d="M519.316 664.13H475.882V674.12H519.316V664.13Z" fill="white"/>
<path opacity="0.2" d="M519.316 648.848H475.882V658.838H519.316V648.848Z" fill="white"/>
<path opacity="0.2" d="M519.316 633.584H475.882V643.574H519.316V633.584Z" fill="white"/>
<path opacity="0.2" d="M519.316 618.302H475.882V628.292H519.316V618.302Z" fill="white"/>
<path opacity="0.2" d="M519.316 603.02H475.882V613.01H519.316V603.02Z" fill="white"/>
<path opacity="0.2" d="M519.316 587.738H475.882V597.728H519.316V587.738Z" fill="white"/>
<path opacity="0.2" d="M519.316 572.474H475.882V582.464H519.316V572.474Z" fill="white"/>
<path opacity="0.2" d="M622.996 664.13H579.562V674.12H622.996V664.13Z" fill="white"/>
<path opacity="0.2" d="M622.996 648.848H579.562V658.838H622.996V648.848Z" fill="white"/>
<path opacity="0.2" d="M622.996 633.584H579.562V643.574H622.996V633.584Z" fill="white"/>
<path opacity="0.2" d="M622.996 618.302H579.562V628.292H622.996V618.302Z" fill="white"/>
<path opacity="0.2" d="M622.996 603.02H579.562V613.01H622.996V603.02Z" fill="white"/>
<path opacity="0.2" d="M622.996 587.738H579.562V597.728H622.996V587.738Z" fill="white"/>
<path opacity="0.2" d="M622.996 572.474H579.562V582.464H622.996V572.474Z" fill="white"/>
<path opacity="0.2" d="M570.58 664.13H527.146V674.12H570.58V664.13Z" fill="white"/>
<path opacity="0.2" d="M570.58 648.848H527.146V658.838H570.58V648.848Z" fill="white"/>
<path opacity="0.2" d="M570.58 633.584H527.146V643.574H570.58V633.584Z" fill="white"/>
<path opacity="0.2" d="M570.58 618.302H527.146V628.292H570.58V618.302Z" fill="white"/>
<path opacity="0.2" d="M674.836 664.13H631.402V674.12H674.836V664.13Z" fill="white"/>
<path opacity="0.2" d="M674.836 648.848H631.402V658.838H674.836V648.848Z" fill="white"/>
<path opacity="0.2" d="M674.836 633.584H631.402V643.574H674.836V633.584Z" fill="white"/>
<path opacity="0.2" d="M674.836 618.302H631.402V628.292H674.836V618.302Z" fill="white"/>
<path opacity="0.2" d="M760.588 485.228C760.588 485.228 769.75 493.04 779.128 490.592C779.128 490.592 769.516 499.754 760.588 485.228Z" fill="black"/>
<path d="M663.19 485.606C683.926 490.52 692.62 481.736 698.992 474.122L697.588 477.758C697.588 477.758 707.938 472.934 706.894 462.116C705.85 451.298 707.02 452.774 710.854 447.302C714.688 441.83 711.304 433.604 706.408 432.578C706.408 432.578 713.032 426.548 692.926 416.126C672.82 405.704 651.166 415.82 650.266 427.376C649.348 438.932 634.804 443.432 629.332 436.304C623.86 429.176 619.504 432.776 619.504 432.776C622.456 432.128 625.48 433.496 626.92 436.16C628.45 438.734 630.7 440.768 633.418 442.028C629.44 441.758 625.624 440.39 622.402 438.05C616.786 434.09 609.964 427.826 617.182 421.742C617.182 421.742 608.542 419.312 604.042 429.878C599.542 440.444 605.32 450.146 615.994 457.994C615.994 457.994 599.722 449.822 601.162 442.64C601.162 442.64 594.412 452.684 612.52 468.038C612.52 468.038 631.6 485.21 648.592 486.254C665.584 487.298 663.19 485.624 663.19 485.624V485.606Z" fill="#263238"/>
<path d="M691.702 487.586C691.702 487.586 685.942 490.286 678.094 495.596C676.456 496.712 674.692 497.63 672.856 498.35C667.888 500.294 663.478 501.23 662.578 498.836C662.38 498.314 662.236 497.756 662.164 497.18C661.624 493.292 662.632 488.036 665.962 485.966C669.724 483.626 671.65 481.466 671.452 477.704C671.362 475.562 670.858 473.312 670.21 471.098L673.288 468.254L689.092 455.6C687.634 465.104 684.844 481.574 691.702 487.622V487.586Z" fill="#EEC1BB"/>
<path opacity="0.2" d="M671.47 478.514C675.628 476.66 680.362 473.132 680.38 468.488C680.38 466.526 680.164 464.654 679.84 463.43L670.732 472.988C671.182 474.752 671.29 475.886 671.47 478.496V478.514Z" fill="black"/>
<path d="M694.852 440.714C691.846 455.114 690.874 461.252 682.486 468.002C669.868 478.172 652.948 472.304 651.616 457.544C650.428 444.26 655.54 422.948 670.534 418.484C685.294 414.092 697.858 426.314 694.852 440.714Z" fill="#EEC1BB"/>
<path d="M676.204 443.198C675.97 444.548 674.998 445.574 674.044 445.484C673.09 445.394 672.496 444.224 672.73 442.874C672.964 441.524 673.936 440.498 674.89 440.588C675.844 440.678 676.438 441.848 676.204 443.198Z" fill="#263238"/>
<path d="M661.156 441.254C660.922 442.568 659.968 443.558 659.014 443.468C658.06 443.378 657.466 442.244 657.7 440.93C657.934 439.616 658.888 438.626 659.842 438.716C660.796 438.806 661.39 439.94 661.156 441.254Z" fill="#263238"/>
<path d="M679.12 438.266C678.94 438.266 678.742 438.194 678.616 438.032C676.618 435.692 674.008 436.142 673.972 436.142C673.594 436.214 673.234 435.944 673.198 435.566C673.162 435.17 673.432 434.81 673.828 434.738C673.972 434.72 677.23 434.162 679.714 437.06C679.966 437.348 679.912 437.798 679.606 438.068C679.462 438.194 679.282 438.266 679.102 438.266H679.12Z" fill="#263238"/>
<path d="M657.16 434.99C656.98 435.008 656.8 434.972 656.656 434.846C656.35 434.612 656.332 434.162 656.584 433.838C659.158 430.652 662.416 430.814 662.56 430.814C662.956 430.832 663.226 431.174 663.172 431.57C663.118 431.966 662.758 432.272 662.38 432.236C662.254 432.236 659.716 432.146 657.664 434.684C657.538 434.846 657.34 434.954 657.16 434.972V434.99Z" fill="#263238"/>
<path d="M663.19 455.888C664.162 457.85 665.188 461.54 665.188 461.54C665.548 461.504 665.89 461.468 666.232 461.432C670.984 460.874 673.018 459.056 673.81 457.202C674.242 456.176 674.296 455.15 674.242 454.304C674.17 453.332 673.918 452.666 673.918 452.666C671.578 454.466 667.168 455.312 664.81 455.672C663.82 455.834 663.19 455.888 663.19 455.888Z" fill="#263238"/>
<path d="M664.81 455.672L665.44 457.328C669.922 456.806 673 455.834 674.242 454.304C674.17 453.332 673.918 452.666 673.918 452.666C671.578 454.466 667.168 455.312 664.81 455.672Z" fill="white"/>
<path d="M666.232 461.432C670.984 460.874 673.018 459.056 673.81 457.202C672.19 457.454 670.282 457.94 668.644 458.858C667.402 459.56 666.664 460.514 666.214 461.432H666.232Z" fill="#DC5753"/>
<path d="M665.116 441.308C665.116 441.308 662.218 446.492 659.248 449.588C658.726 450.128 658.906 451.028 659.572 451.37C661.3 452.234 663.46 451.874 663.46 451.874L665.098 441.308H665.116Z" fill="#D4827D"/>
<path d="M675.196 440.588L671.956 439.418C671.956 439.418 673.486 442.118 675.196 440.588Z" fill="#263238"/>
<path d="M660.184 438.788L656.944 437.618C656.944 437.618 658.474 440.318 660.184 438.788Z" fill="#263238"/>
<path d="M653.416 433.73C667.33 433.784 682.414 422.192 685.636 423.002C682.396 424.19 682.972 429.788 683.728 431.588C688.678 443.144 683.872 449.894 691.594 452.252C706.768 456.878 699.586 426.89 690.154 421.886C689.416 421.49 690.154 421.886 689.362 421.616C690.658 407.234 663.946 415.478 657.736 420.932" fill="#263238"/>
<path d="M697.894 453.062C695.824 455.852 692.818 457.4 690.19 457.742C686.23 458.264 684.952 451.838 686.716 448.13C688.3 444.8 692.35 442.928 696.004 444.116C699.604 445.286 700.252 449.858 697.894 453.044V453.062Z" fill="#EEC1BB"/>
<path opacity="0.2" d="M689.29 451.64C689.578 450.29 690.352 449.03 691.468 448.202C692.584 447.374 693.988 446.96 695.374 447.068" stroke="black" stroke-width="0.5" stroke-linecap="round" stroke-linejoin="round"/>
<path d="M601.468 408.602L604.564 460.694L649.582 491.078L638.08 516.764C638.08 516.764 605.788 490.574 591.766 475.508C577.744 460.442 589.246 405.362 589.246 405.362L601.468 408.584V408.602Z" fill="#EEC1BB"/>
<path d="M599.884 411.806C599.884 411.806 605.158 411.68 608.146 408.494C611.134 405.308 614.356 403.544 616.408 401.024C618.46 398.504 614.14 399.26 611.926 400.142C609.712 401.024 607.192 401.978 606.796 400.214C606.4 398.45 611.098 383.564 610.27 381.17C609.46 378.776 607.948 380.936 607.948 380.936C607.948 380.936 608.992 377.3 607.66 376.49C607.318 376.274 606.166 376.346 605.428 377.948C603.772 381.512 600.694 389.18 600.694 389.18C600.874 388.748 604.006 379.01 604.294 377.48C604.654 375.5 603.808 374.366 602.656 374.204C601 373.952 596.716 385.904 596.176 386.282C596.176 386.282 598.876 379.496 597.508 377.84C596.14 376.184 594.196 380.36 593.206 384.374C592.288 388.046 589.516 395.03 588.94 398.846C588.238 403.562 588.814 406.892 592.576 409.322C596.338 411.752 599.884 411.806 599.884 411.806Z" fill="#EEC1BB"/>
<path opacity="0.3" d="M607.894 381.458C606.994 384.356 605.95 387.218 604.78 390.026" stroke="black" stroke-width="0.25" stroke-linecap="round" stroke-linejoin="round"/>
<path opacity="0.3" d="M595.042 388.892C598.966 389.036 602.836 390.368 606.022 392.672" stroke="black" stroke-width="0.25" stroke-linecap="round" stroke-linejoin="round"/>
<path opacity="0.3" d="M604.942 400.844C603.358 400.592 601.702 400.916 600.334 401.744C598.966 402.572 597.886 403.868 597.346 405.38" stroke="black" stroke-width="0.25" stroke-linecap="round" stroke-linejoin="round"/>
<g opacity="0.4">
<path d="M703.816 529.274L711.754 493.112C705.472 488.09 681.928 486.902 681.928 486.902L645.406 488.018L640.852 503.624C640.852 503.624 634.012 518.168 632.554 529.382C631.798 535.178 635.506 558.956 634.12 570.17L632.842 582.662C668.302 608.654 704.536 606.494 704.536 606.494C702.844 601.778 693.862 586.766 693.016 582.122C693.358 576.164 692.872 571.34 696.076 558.848C698.614 548.948 703.798 530.588 703.78 529.256L703.816 529.274Z" fill="#070707"/>
</g>
<path d="M652.48 487.748C652.48 487.748 647.152 511.976 658.222 516.872C669.31 521.768 679.444 513.092 686.464 506.792C693.484 500.492 699.586 488.9 699.586 488.9L683.818 486.326L652.48 487.766V487.748Z" fill="#EEC1BB"/>
<path d="M628.756 615.422C628.756 615.422 581.236 721.46 589.354 733.43C614.554 777.134 653.182 831.188 659.212 844.742C660.688 846.758 668.356 842.636 669.526 840.116C669.526 840.116 669.526 834.086 666.772 824.438C648.196 759.458 658.024 767.306 627.37 724.25C653.416 687.98 672.586 632.63 672.586 632.63L628.774 615.422H628.756Z" fill="#EEC1BB"/>
<path d="M644.02 586.1C644.02 586.1 667.942 678.422 677.41 723.818C687.346 771.41 700.468 851.456 697.696 883.082C700.36 884.666 705.292 884.882 710.692 883.172C710.692 883.172 732.022 776.882 710.548 725.906C719.98 613.136 707.722 615.422 707.722 615.422L644.02 586.1Z" fill="#EEC1BB"/>
<path d="M709.072 612.416C706.21 604.082 697.732 590.456 693.052 582.986L632.59 582.68L627.28 607.952L626.722 612.596L610.522 654.068L657.088 674.192L658.96 669.404L662.542 661.484L665.404 674.624L716.74 664.814C716.83 644.87 715.426 631.352 709.054 612.452L709.072 612.416Z" fill="#407BFF"/>
<path d="M709.072 612.416C706.21 604.082 697.732 590.456 693.052 582.986L632.59 582.68L627.28 607.952L626.722 612.596L610.522 654.068L657.088 674.192L658.96 669.404L662.542 661.484L665.404 674.624L716.74 664.814C716.83 644.87 715.426 631.352 709.054 612.452L709.072 612.416Z" fill="#1F042F"/>
<path d="M653.866 588.404C654.784 588.404 655.522 589.142 655.522 590.06C655.522 590.978 654.784 591.716 653.866 591.716C652.948 591.716 652.21 590.978 652.21 590.06C652.21 589.142 652.948 588.404 653.866 588.404Z" fill="black"/>
<path opacity="0.2" d="M662.542 661.448L652.228 626.474L658.96 669.386L662.542 661.448Z" fill="black"/>
<path d="M654.514 840.962L658.906 838.892C659.896 838.424 661.048 838.496 662.02 839.018C666.178 841.286 667.474 839.09 668.698 834.536C670.354 833.51 671.776 835.292 672.172 835.778L681.064 846.182C681.82 847.046 681.73 848.36 680.866 849.116C680.704 849.242 680.542 849.368 680.362 849.44C675.034 851.942 672.496 853.13 665.872 856.244L645.568 865.784C640.024 868.376 636.262 863.354 638.296 861.752C647.476 854.678 653.326 848.234 655.09 843.77C655.432 842.978 654.64 842.87 654.532 840.944L654.514 840.962Z" fill="#263238"/>
<path d="M649.87 848.108C651.238 847.424 652.534 846.596 653.74 845.642C653.848 845.534 653.848 845.372 653.74 845.264C653.686 845.21 653.596 845.174 653.524 845.192C652.768 845.192 646.072 845.192 645.154 846.812C644.974 847.1 644.974 847.46 645.154 847.748C645.424 848.306 645.946 848.72 646.576 848.828C647.728 848.936 648.88 848.684 649.87 848.108ZM652.714 845.714C651.238 846.776 648.412 848.594 646.72 848.252C646.27 848.144 645.892 847.856 645.676 847.46C645.586 847.352 645.586 847.19 645.676 847.064C646.18 846.182 649.96 845.786 652.714 845.714Z" fill="#1F042F"/>
<path d="M653.686 845.678C653.686 845.678 653.812 845.642 653.866 845.606C653.902 845.516 653.884 845.39 653.812 845.318C653.704 845.084 649.87 840.296 647.026 842.042C646.324 842.492 646.288 842.96 646.396 843.266C646.882 844.796 651.616 845.876 653.578 845.786L653.686 845.678ZM647.53 842.33C649.438 841.43 652.03 844.076 652.984 845.156C650.752 845.048 647.188 843.986 646.918 843.032C646.882 842.96 646.792 842.762 647.314 842.438L647.512 842.33H647.53Z" fill="#1F042F"/>
<path d="M653.056 845.786C654.658 845.282 656.494 845.534 657.916 846.434" stroke="#1F042F" stroke-width="0.5" stroke-linecap="round" stroke-linejoin="round"/>
<path d="M651.292 849.116C652.894 848.612 654.73 848.864 656.152 849.764" stroke="#1F042F" stroke-width="0.5" stroke-linecap="round" stroke-linejoin="round"/>
<path d="M648.7 852.446C650.302 851.942 652.138 852.194 653.56 853.094" stroke="#1F042F" stroke-width="0.5" stroke-linecap="round" stroke-linejoin="round"/>
<path d="M695.896 877.25H700.756C701.854 877.25 702.862 877.808 703.528 878.69C706.318 882.506 708.424 881.066 711.466 877.466C713.41 877.232 713.914 879.464 714.076 880.058L717.712 893.252C718.018 894.35 717.388 895.502 716.29 895.826C716.092 895.88 715.894 895.916 715.678 895.898H677.23C671.11 895.898 669.85 889.742 672.37 889.166C683.692 886.664 691.72 883.334 695.23 880.04C695.878 879.464 695.23 879.032 695.914 877.25H695.896Z" fill="#263238"/>
<path d="M688.66 881.75C690.19 881.714 691.72 881.516 693.214 881.156C693.358 881.102 693.43 880.958 693.376 880.814C693.34 880.742 693.286 880.67 693.214 880.652C692.53 880.328 686.464 877.484 684.952 878.564C684.664 878.744 684.52 879.086 684.556 879.428C684.556 880.058 684.862 880.652 685.384 881.012C686.374 881.606 687.526 881.858 688.678 881.75H688.66ZM692.26 880.796C690.478 881.12 687.148 881.57 685.762 880.544C685.402 880.256 685.186 879.842 685.168 879.392C685.132 879.248 685.204 879.104 685.33 879.032C686.176 878.438 689.758 879.698 692.278 880.814L692.26 880.796Z" fill="#7421A5"/>
<path d="M693.142 881.192C693.142 881.192 693.268 881.21 693.34 881.192C693.412 881.12 693.448 881.012 693.412 880.904C693.412 880.652 691.99 874.676 688.66 875.054C687.832 875.162 687.598 875.558 687.562 875.9C687.364 877.484 691.18 880.472 692.998 881.246L693.142 881.192ZM688.984 875.54C691.09 875.54 692.314 879.032 692.728 880.418C690.748 879.374 687.976 876.89 688.156 875.918C688.156 875.846 688.156 875.612 688.768 875.558H688.984V875.54Z" fill="#7421A5"/>
<path d="M692.53 881.012C694.204 881.246 695.752 882.236 696.652 883.676Z" fill="#7421A5"/>
<path d="M692.53 881.012C694.204 881.246 695.752 882.236 696.652 883.676" stroke="#1F042F" stroke-width="0.5" stroke-linecap="round" stroke-linejoin="round"/>
<path d="M689.506 883.28C691.18 883.514 692.728 884.504 693.628 885.926Z" fill="#7421A5"/>
<path d="M689.506 883.28C691.18 883.514 692.728 884.504 693.628 885.926" stroke="#1F042F" stroke-width="0.5" stroke-linecap="round" stroke-linejoin="round"/>
<path d="M685.762 885.188C687.436 885.422 688.984 886.412 689.884 887.834Z" fill="#7421A5"/>
<path d="M685.762 885.188C687.436 885.422 688.984 886.412 689.884 887.834" stroke="#1F042F" stroke-width="0.5" stroke-linecap="round" stroke-linejoin="round"/>
<path d="M752.596 434.414L741.58 440.588L748.186 478.028L702.826 489.476L706.57 515.612C706.57 515.612 745.918 504.65 765.052 494.858C781.648 486.362 752.596 434.414 752.596 434.414Z" fill="#EEC1BB"/>
<path d="M742.804 440.552C742.804 440.552 737.53 440.3 734.632 437.042C731.734 433.784 728.548 431.948 726.55 429.374C724.552 426.8 728.872 427.664 731.068 428.6C733.264 429.536 735.766 430.562 736.198 428.798C736.63 427.034 732.292 412.058 733.174 409.682C734.056 407.306 735.514 409.52 735.514 409.52C735.514 409.52 734.56 405.848 735.91 405.074C736.252 404.876 737.404 404.966 738.106 406.586C739.672 410.186 742.57 417.926 742.57 417.926C742.39 417.494 739.492 407.684 739.258 406.154C738.934 404.156 739.816 403.058 740.968 402.914C742.624 402.698 746.62 414.74 747.16 415.136C747.16 415.136 744.622 408.278 746.026 406.658C747.43 405.038 749.266 409.268 750.184 413.3C751.012 416.99 753.622 424.028 754.108 427.88C754.702 432.614 754.036 435.926 750.22 438.266C746.404 440.606 742.84 440.57 742.84 440.57L742.804 440.552Z" fill="#EEC1BB"/>
<path opacity="0.3" d="M735.514 410.024C736.36 412.94 737.332 415.82 738.43 418.664" stroke="black" stroke-width="0.25" stroke-linecap="round" stroke-linejoin="round"/>
<path opacity="0.3" d="M748.186 417.746C744.262 417.8 740.356 419.042 737.116 421.256" stroke="black" stroke-width="0.25" stroke-linecap="round" stroke-linejoin="round"/>
<path opacity="0.3" d="M738.016 429.482C739.6 429.266 741.256 429.644 742.606 430.49C743.956 431.336 745 432.668 745.504 434.198" stroke="black" stroke-width="0.25" stroke-linecap="round" stroke-linejoin="round"/>
<path d="M313.648 565.328C310.75 595.316 301.102 624.638 285.658 650.522C282.958 655.04 280.042 659.576 279.07 664.742C278.098 669.908 279.61 675.956 284.11 678.674C287.746 680.87 292.3 680.438 296.548 680.816C309.22 681.932 319.732 690.554 330.892 696.62C348.748 706.322 369.898 709.814 389.932 706.376C394.666 705.566 399.616 704.216 402.91 700.742C407.014 696.422 407.626 689.942 408.004 684.002C410.434 646.094 412.882 608.186 415.312 570.278L313.63 565.346L313.648 565.328Z" fill="#407BFF"/>
<g opacity="0.3">
<path d="M313.648 565.328C310.75 595.316 301.102 624.638 285.658 650.522C282.958 655.04 280.042 659.576 279.07 664.742C278.098 669.908 279.61 675.956 284.11 678.674C287.746 680.87 292.3 680.438 296.548 680.816C309.22 681.932 319.732 690.554 330.892 696.62C348.748 706.322 369.898 709.814 389.932 706.376C394.666 705.566 399.616 704.216 402.91 700.742C407.014 696.422 407.626 689.942 408.004 684.002C410.434 646.094 412.882 608.186 415.312 570.278L313.63 565.346L313.648 565.328Z" fill="#1F042F"/>
</g>
<path d="M313.648 565.328C310.75 595.316 301.102 624.638 285.658 650.522C282.958 655.04 280.042 659.576 279.07 664.742C278.098 669.908 279.61 675.956 284.11 678.674C287.746 680.87 292.3 680.438 296.548 680.816C309.22 681.932 319.732 690.554 330.892 696.62C348.748 706.322 369.898 709.814 389.932 706.376C394.666 705.566 399.616 704.216 402.91 700.742C407.014 696.422 407.626 689.942 408.004 684.002C410.434 646.094 412.882 608.186 415.312 570.278L313.63 565.346L313.648 565.328Z" fill="#1F042F"/>
<g opacity="0.4">
<path d="M313.648 565.328C310.75 595.316 301.102 624.638 285.658 650.522C282.364 656.03 278.728 661.61 278.728 668.288C278.728 670.664 279.322 673.04 280.564 675.056C284.38 681.284 290.752 680.294 296.53 680.798C309.202 681.914 319.714 690.536 330.874 696.602C348.73 706.304 369.88 709.796 389.914 706.358C394.648 705.548 399.598 704.198 402.892 700.724C406.996 696.404 407.608 689.924 407.986 683.984C410.416 646.076 412.864 608.168 415.294 570.26L313.612 565.328H313.648Z" fill="#122B2D"/>
</g>
<path d="M424.33 823.502L431.17 860.6L443.536 858.854L445.912 821.378L424.33 823.502Z" fill="#895555"/>
<path d="M452.212 852.482C452.806 850.268 452.968 848.36 450.574 847.802L447.172 847.01C445.876 846.776 444.796 847.496 443.644 848.036C434.842 852.14 432.844 844.508 429.784 843.986C425.86 843.302 426.202 856.262 425.896 856.892L419.074 870.68C418.498 871.832 418.786 874.586 420.028 875.162C420.244 875.27 420.478 875.342 420.73 875.378C427.678 876.584 430.972 877.16 439.63 878.672L466.108 883.28C473.326 884.54 474.946 875.72 472.084 874.568C459.196 869.474 454.678 864.182 450.844 860.222C450.844 860.222 451.294 855.92 452.194 852.5L452.212 852.482Z" fill="#1F042F"/>
<path opacity="0.4" d="M466.126 883.262L439.648 878.654C430.99 877.142 427.696 876.566 420.748 875.36C420.514 875.324 420.28 875.252 420.046 875.144C419.2 874.748 418.804 873.362 418.822 872.156L419.038 871.058L472.606 880.4C471.544 882.326 469.42 883.856 466.126 883.28V883.262Z" fill="white"/>
<path d="M456.676 866.27C455.362 867.116 454.21 868.196 453.292 869.456" stroke="#263238" stroke-width="0.5" stroke-linecap="round" stroke-linejoin="round"/>
<path d="M452.95 863.012C451.744 863.822 450.664 864.812 449.764 865.946" stroke="#263238" stroke-width="0.5" stroke-linecap="round" stroke-linejoin="round"/>
<path d="M450.358 860.294C449.26 860.654 448.288 861.392 447.622 862.328" stroke="#263238" stroke-width="0.5" stroke-linecap="round" stroke-linejoin="round"/>
<path d="M451.168 855.668C449.944 855.47 448.702 855.506 447.496 855.776" stroke="#263238" stroke-width="0.5" stroke-linecap="round" stroke-linejoin="round"/>
<g opacity="0.3">
<path d="M437.992 854.048C437.704 855.326 436.984 856.676 435.724 857.072C434.95 857.324 434.104 857.162 433.294 857C430.9 856.514 428.506 856.028 426.112 855.524V855.452C426.31 851.96 426.742 843.446 429.73 843.968C432.088 844.382 433.708 849.602 438.874 849.062C438.514 850.862 438.19 853.184 437.992 854.048Z" fill="black"/>
</g>
<path d="M347.47 826.544L341.746 868.556L328.066 869.24L323.62 828.74L347.47 826.544Z" fill="#895555"/>
<path d="M316.402 888.05H347.02C347.02 888.05 347.686 886.772 346.93 883.334C346.822 882.794 346.66 882.218 346.462 881.57C346.462 881.534 346.462 881.498 346.426 881.48C346.138 880.526 345.814 879.374 345.454 878.114C344.05 872.984 343.096 861.194 343.096 861.194C343.096 861.194 337.3 855.38 331.342 858.098C326.104 860.492 326.932 863.516 326.932 863.516C326.932 863.516 326.842 871.346 322.882 874.874C320.434 877.07 317.986 878.762 316.816 881.48C316.6 881.984 316.42 882.524 316.294 883.118C316.294 883.19 316.258 883.262 316.258 883.334C316.006 884.648 316.024 886.178 316.384 888.05H316.402Z" fill="#1F042F"/>
<g opacity="0.4">
<path d="M346.93 883.352C347.686 886.772 347.02 888.068 347.02 888.068H316.402C316.042 886.196 316.042 884.666 316.276 883.352H346.93Z" fill="white"/>
</g>
<path d="M328.606 869.042C330.334 867.692 332.584 867.872 334.132 869.384C334.546 869.798 335.194 869.15 334.78 868.736C332.854 866.846 330.082 866.738 327.976 868.394C327.526 868.754 328.156 869.384 328.624 869.042H328.606Z" fill="#263238"/>
<path d="M327.742 871.904C329.47 870.554 331.72 870.734 333.268 872.246C333.682 872.66 334.33 872.012 333.916 871.598C331.99 869.708 329.218 869.6 327.112 871.256C326.662 871.616 327.292 872.246 327.76 871.886L327.742 871.904Z" fill="#263238"/>
<path d="M326.878 874.532C328.606 873.182 330.856 873.362 332.404 874.874C332.818 875.288 333.466 874.64 333.034 874.226C331.108 872.336 328.336 872.228 326.23 873.884C325.78 874.244 326.41 874.874 326.86 874.532H326.878Z" fill="#263238"/>
<path d="M314.926 587.378L375.514 587.9L412.396 586.784C412.396 586.784 448.558 686.324 450.754 707.348C452.95 728.372 451.078 842.438 451.078 842.438L423.97 847.046C423.97 847.046 411.262 725.636 408.922 714.26C406.87 704.342 373.264 654.284 367.486 638.12C366.91 641.432 366.298 644.762 365.704 648.056C364.246 662.96 361.78 716.06 359.728 733.736C359.728 733.736 353.05 829.136 347.902 858.476L320.92 858.512C317.356 816.878 315.07 670.628 315.07 670.628C313.072 638.858 314.944 587.396 314.944 587.396L314.926 587.378Z" fill="#263238"/>
<g opacity="0.2">
<path d="M314.926 587.378L375.514 587.9L412.396 586.784C412.396 586.784 448.558 686.324 450.754 707.348C452.95 728.372 451.078 842.438 451.078 842.438L423.97 847.046C423.97 847.046 411.262 725.636 408.922 714.26C406.87 704.342 373.264 654.284 367.486 638.12C366.91 641.432 366.298 644.762 365.704 648.056C364.246 662.96 361.78 716.06 359.728 733.736C359.728 733.736 353.05 829.136 347.902 858.476L320.92 858.512C317.356 816.878 315.07 670.628 315.07 670.628C313.072 638.858 314.944 587.396 314.944 587.396L314.926 587.378Z" fill="white"/>
</g>
<g opacity="0.5">
<path d="M397.258 603.47C400.678 614.738 409.84 623.774 421.144 627.068C421.756 627.248 421.486 628.202 420.874 628.022C409.246 624.638 399.814 615.332 396.286 603.722C396.106 603.11 397.06 602.858 397.24 603.452L397.258 603.47Z" fill="black"/>
<path d="M366.478 603.47C367.144 613.316 367.792 623.198 368.458 633.044C368.494 633.674 369.466 633.674 369.448 633.044C369.106 627.986 368.764 622.928 368.44 617.852C370.87 619.724 373.714 617.456 374.506 614.936C375.802 610.868 375.316 606.044 374.308 601.958C374.146 601.346 373.192 601.616 373.354 602.21C374.074 605.072 374.38 607.988 374.164 610.94C374.074 612.434 373.93 614.144 373.228 615.512C372.454 617.042 370.474 618.32 368.908 616.934C368.728 616.79 368.548 616.772 368.386 616.862C368.08 612.398 367.774 607.916 367.486 603.452C367.45 602.822 366.478 602.822 366.496 603.452L366.478 603.47Z" fill="black"/>
<path d="M337.498 605.144C337.642 618.212 327.58 629.138 314.584 630.164C313.954 630.218 313.972 629.246 314.584 629.192C327.058 628.202 336.67 617.636 336.526 605.144C336.526 604.514 337.498 604.514 337.498 605.144Z" fill="black"/>
<path d="M331.126 732.566C327.076 734.06 322.738 734.078 318.67 732.638C318.094 732.422 318.346 731.486 318.922 731.702C322.846 733.106 326.968 733.07 330.874 731.63C331.468 731.414 331.72 732.35 331.126 732.566Z" fill="black"/>
</g>
<path d="M391.21 440.318C387.502 440.156 378.862 439.328 367.414 439.292C352.942 439.256 325.744 439.688 306.502 443.468L314.782 563.978C314.782 563.978 313.63 579.854 311.146 595.82C346.876 607.934 393.136 603.488 416.248 590.186C415.996 590.708 414.736 577.64 412.81 558.488C409.426 524.756 403.972 472.16 398.338 441.866C398.194 441.11 392.056 440.354 391.228 440.318H391.21Z" fill="black"/>
<path d="M339.568 442.514C339.568 442.514 340.126 431.66 332.224 413.624C332.224 413.606 333.16 413.03 333.142 413.012C332.044 410.492 330.928 408.17 329.902 406.172C329.884 406.118 329.866 406.1 329.866 406.1L357.604 418.574C357.784 424.658 361.474 435.944 363.4 440.678C363.4 440.678 367.81 449.12 356.074 451.046C347.506 452.468 339.568 442.514 339.568 442.514Z" fill="#895555"/>
<path opacity="0.2" d="M359.17 426.944L343.978 425.558C345.922 429.968 350.71 434.882 361.024 433.964C361.024 433.964 359.314 428.96 359.17 426.944Z" fill="black"/>
<path d="M328.048 393.662C331.918 409.7 333.772 418.808 343.438 425.594C357.982 435.8 376.27 425.09 377.26 408.17C378.16 392.942 371.68 369.29 354.67 365.816C337.912 362.396 324.178 377.624 328.048 393.644V393.662Z" fill="#895555"/>
<path d="M322.54 374.528C323.188 365.204 345.544 361.136 352.618 364.592C353.68 365.114 341.602 374.114 342.34 373.682L336.472 376.94C335.464 376.904 333.79 378.362 333.34 381.512C333.34 381.512 338.452 406.244 332.692 414.686C326.536 412.922 324.466 403.148 321.64 397.586C317.428 389.324 311.956 377.084 322.54 374.51V374.528Z" fill="#263238"/>
<path opacity="0.1" d="M377.26 408.188C377.26 408.188 363.31 407.756 358.612 406.568C358.612 406.568 353.626 405.434 347.182 405.074C343.96 404.894 335.608 397.406 335.608 397.406L333.682 398.702L333.232 415.892C333.232 415.892 344.104 432.794 359.674 429.176C374.002 425.846 377.26 412.256 377.242 408.188" fill="black"/>
<path d="M324.034 408.314C326.068 412.256 329.74 414.866 333.25 415.892C338.506 417.44 339.37 411.824 338.02 406.802C336.796 402.284 334.456 396.92 329.128 397.586C323.872 398.234 321.73 403.796 324.052 408.314H324.034Z" fill="#895555"/>
<path d="M351.61 393.212C351.898 394.868 353.014 396.056 354.112 395.84C355.192 395.642 355.84 394.13 355.534 392.474C355.246 390.818 354.13 389.63 353.032 389.846C351.952 390.044 351.304 391.556 351.61 393.212Z" fill="#263238"/>
<path d="M368.908 390.908C369.196 392.564 370.312 393.752 371.41 393.536C372.49 393.338 373.138 391.826 372.832 390.17C372.544 388.514 371.428 387.326 370.33 387.542C369.25 387.74 368.602 389.252 368.908 390.908Z" fill="#263238"/>
<path d="M362.95 391.682C362.95 391.682 369.664 398.99 371.932 402.05C369.988 404.552 365.848 404.282 365.848 404.282L362.95 391.682Z" fill="#561616"/>
<path d="M346.624 387.128C346.894 387.182 347.182 387.11 347.38 386.876C349.738 384.248 352.618 384.644 352.654 384.644C353.086 384.716 353.482 384.41 353.554 383.978C353.626 383.546 353.32 383.15 352.906 383.078C352.762 383.06 349.144 382.556 346.21 385.814C345.922 386.138 345.94 386.642 346.264 386.93C346.372 387.02 346.498 387.092 346.624 387.11V387.128Z" fill="#263238"/>
<path d="M361.348 410.528C358.666 411.032 356.344 410.06 353.896 408.422" stroke="#263238" stroke-width="0.75" stroke-linecap="round" stroke-linejoin="round"/>
<path opacity="0.2" d="M326.95 403.166C327.436 402.086 328.696 401.492 329.884 401.564C331.072 401.636 332.152 402.284 333.016 403.094C334.042 404.084 334.816 405.326 335.212 406.694" stroke="black" stroke-width="0.5" stroke-linecap="round" stroke-linejoin="round"/>
<path d="M374.326 383.384C374.47 383.33 374.596 383.222 374.686 383.096C374.938 382.736 374.848 382.25 374.488 381.998C370.906 379.532 367.558 380.936 367.396 380.972C367 381.134 366.802 381.602 366.964 382.016C367.126 382.412 367.576 382.61 367.99 382.448C368.134 382.376 370.726 381.35 373.588 383.33C373.804 383.492 374.092 383.51 374.326 383.402V383.384Z" fill="#263238"/>
<path d="M317.95 368.084C318.58 364.25 323.17 362.684 326.86 362.864C325.978 358.436 331.36 354.944 335.032 354.476C338.848 353.99 340.45 355.286 340.45 355.286C340.162 355.394 341.242 352.892 341.998 351.848C344.77 347.996 349.828 346.16 354.292 347.384C358.756 348.608 362.374 352.802 363.094 357.59C365.074 354.818 369.304 354.224 371.932 356.384C374.56 358.526 375.082 363.008 373.012 365.726C375.82 365.456 378.628 368.012 378.754 371C378.88 373.97 376.324 376.76 373.498 376.706C373.858 380.018 374.164 384.194 374.506 387.506L368.188 376.112C365.794 375.662 365.2 374.708 364.354 372.296C363.184 375.662 360.538 375.824 357.136 376.238C353.734 376.652 350.17 374.906 348.262 371.9C347.038 375.428 344.104 378.416 340.558 378.884C337.012 379.37 333.106 376.796 332.53 373.07C330.946 376.58 326.734 378.47 323.206 377.264C319.678 376.058 317.284 371.9 317.914 368.066L317.95 368.084Z" fill="#263238"/>
<path d="M265.696 421.022C265.696 421.022 274.822 367.688 275.182 367.688L260.512 363.206C260.512 363.206 234.448 426.224 241.738 437.096C249.028 447.968 314.116 477.236 314.116 477.236L325.528 449.642L265.696 421.022Z" fill="#895555"/>
<path d="M337.048 440.858L319.624 439.868C306.934 434.612 274.21 422.93 274.21 422.93L255.814 459.182L317.554 483.086L337.048 440.858Z" fill="black"/>
<path d="M275.2 369.128C275.2 369.128 287.422 363.278 287.998 360.416C288.574 357.554 287.656 355.232 287.656 355.232C287.656 355.232 299.5 335.864 296.476 334.514C294.838 333.776 291.166 338.06 285.694 347.294C285.694 347.294 283.804 341.894 280.618 344C280.618 344 278.872 340.022 274.912 342.056C274.912 342.056 271.474 340.184 269.224 342.434C266.974 344.684 260.692 355.322 259.666 361.532C258.658 367.742 270.682 371.558 270.682 371.558L275.182 369.11L275.2 369.128Z" fill="#895555"/>
<path opacity="0.3" d="M287.908 356.06C286.774 354.224 284.812 351.434 283.696 349.598C283.282 348.914 282.508 347.204 281.77 346.916C280.564 346.43 279.79 346.772 279.124 347.888C277.882 349.958 279.052 354.044 280.762 355.754C278.89 355.844 275.902 356.6 274.318 357.59C272.734 358.58 271.51 360.308 271.492 362.18" stroke="black" stroke-width="0.5" stroke-linecap="round" stroke-linejoin="round"/>
<path d="M483.748 437.888C483.676 438.59 458.476 492.806 458.476 492.806L426.67 465.068C426.67 465.068 413.872 492.878 414.682 492.914C415.492 492.95 458.026 535.196 471.382 519.698C484.738 504.2 499.03 446.06 499.03 446.06L483.73 437.87L483.748 437.888Z" fill="#895555"/>
<path opacity="0.2" d="M458.476 492.806C458.476 492.806 457.09 499.682 459.502 504.758C459.502 504.758 456.982 502.778 455.866 498.422C454.768 494.066 455.704 490.412 455.704 490.412L458.458 492.806H458.476Z" fill="black"/>
<path d="M483.316 438.95C483.316 438.95 480.058 425.81 481.894 423.542C483.73 421.274 486.106 420.5 486.106 420.5C486.106 420.5 493.504 399.044 496.456 400.502C498.058 401.294 497.104 406.856 493.468 416.954C493.468 416.954 498.832 414.974 499.228 418.772C499.228 418.772 503.404 417.584 504.358 421.94C504.358 421.94 507.994 423.398 507.688 426.566C507.382 429.734 503.188 441.362 499.048 446.096C494.908 450.83 484.306 443.99 484.306 443.99L483.316 438.968V438.95Z" fill="#895555"/>
<path opacity="0.3" d="M485.296 420.824C487.438 420.518 490.84 420.266 492.964 419.96C493.756 419.852 495.556 419.348 496.258 419.744C497.392 420.374 497.626 421.166 497.194 422.408C496.384 424.676 492.496 426.386 490.084 426.17C491.2 427.664 492.532 430.454 492.784 432.308C493.036 434.162 492.478 436.196 491.056 437.402" stroke="black" stroke-width="0.5" stroke-linecap="round" stroke-linejoin="round"/>
<path opacity="0.3" d="M506.086 429.338C505.87 430.004 505.654 430.688 505.24 431.264C504.826 431.84 504.178 432.29 503.476 432.29C502.342 432.29 501.514 431.192 501.244 430.094C500.848 428.582 501.172 426.908 502.108 425.666C501.622 426.746 500.884 427.772 499.858 428.384C498.832 428.996 497.482 429.14 496.438 428.564C495.394 427.988 494.8 426.602 495.286 425.504" stroke="black" stroke-width="0.5" stroke-linecap="round" stroke-linejoin="round"/>
<path d="M391.354 441.398C382.534 451.136 384.694 474.356 426.346 513.578L446.272 481.322C437.236 471.026 430.324 466.49 417.616 454.646C397.672 436.34 391.354 441.398 391.354 441.398Z" fill="black"/>
<path opacity="0.2" d="M405.556 491.87L403.846 469.424L412.162 499.358L405.556 491.87Z" fill="black"/>
<path d="M314.764 563.996C316.366 562.25 372.13 576.452 372.13 576.452L371.608 582.428L313.288 579.422C313.288 579.422 306.808 572.6 314.764 563.996Z" fill="#1F042F"/>
<path d="M372.148 576.452L412.612 556.706C412.612 556.706 426.688 563.834 416.698 578.864C415.348 580.88 371.608 582.41 371.608 582.41L372.13 576.434L372.148 576.452Z" fill="#1F042F"/>
<path d="M381.328 578.45C381.328 583.526 377.224 587.63 372.148 587.63C367.072 587.63 362.968 583.526 362.968 578.45C362.968 573.374 367.072 569.27 372.148 569.27C377.224 569.27 381.328 573.374 381.328 578.45Z" fill="#1F042F"/>
<path d="M369.862 581.258C361.582 587.27 356.128 596.99 355.336 607.196C354.526 617.384 358.396 627.86 365.632 635.078C371.302 633.926 376.99 632.774 382.66 631.622C373.066 617.366 369.214 599.33 372.184 582.392" fill="#1F042F"/>
<path d="M378.718 582.572C378.718 582.572 399.778 614.828 410.416 616.988L395.008 630.164C395.008 630.164 373.102 618.482 372.13 584.552L378.7 582.554L378.718 582.572Z" fill="#1F042F"/>
<g opacity="0.4">
<path d="M314.764 563.996C316.366 562.25 372.13 576.452 372.13 576.452L371.608 582.428L313.288 579.422C313.288 579.422 306.808 572.6 314.764 563.996Z" fill="#1F042F"/>
<path d="M372.148 576.452L412.612 556.706C412.612 556.706 426.688 563.834 416.698 578.864C415.348 580.88 371.608 582.41 371.608 582.41L372.13 576.434L372.148 576.452Z" fill="black"/>
<path d="M381.328 578.45C381.328 583.526 377.224 587.63 372.148 587.63C367.072 587.63 362.968 583.526 362.968 578.45C362.968 573.374 367.072 569.27 372.148 569.27C377.224 569.27 381.328 573.374 381.328 578.45Z" fill="black"/>
<path d="M369.862 581.258C361.582 587.27 356.128 596.99 355.336 607.196C354.526 617.384 358.396 627.86 365.632 635.078C371.302 633.926 376.99 632.774 382.66 631.622C373.066 617.366 369.214 599.33 372.184 582.392" fill="#1F042F"/>
<path d="M378.718 582.572C378.718 582.572 399.778 614.828 410.416 616.988L395.008 630.164C395.008 630.164 373.102 618.482 372.13 584.552L378.7 582.554L378.718 582.572Z" fill="black"/>
</g>
<path d="M541.392 375.237L561 394.62V384.928L550.407 375.237L555.14 370.73V360.813L541.392 375.237Z" fill="white" stroke="white"/>
<path d="M537.561 378.618L516.375 399.803L526.743 399.803L537.561 388.534L541.167 392.14L550.858 392.14L537.561 378.618Z" fill="white" stroke="white"/>
<path d="M534.18 375.012L512.769 353.826L512.769 363.292L524.489 375.012L520.432 379.519L520.432 388.084L534.18 375.012Z" fill="white" stroke="white"/>
<path d="M537.335 370.73L558.24 350.29L548.549 350.205L537.335 361.94L533.955 358.109L524.94 358.109L537.335 370.73Z" fill="white" stroke="white"/>
</svg>
