<svg width="200" height="198" viewBox="0 0 200 198" fill="none" xmlns="http://www.w3.org/2000/svg">
<g opacity="0.25">
<path d="M129.778 10.8986C129.778 10.8986 73.1484 8.13615 27.0507 39.5585C-19.047 70.9809 4.37592 180.902 20.0871 187.865C35.7983 194.829 96.3986 206.857 143.129 186.427C189.86 165.996 205.226 91.9867 198.493 70.7507C191.759 49.5147 178.695 16.9413 129.778 10.8986Z" fill="black"/>
<path opacity="0.7" d="M129.778 10.8986C129.778 10.8986 73.1484 8.13615 27.0507 39.5585C-19.047 70.9809 4.37592 180.902 20.0871 187.865C35.7983 194.829 96.3986 206.857 143.129 186.427C189.86 165.996 205.226 91.9867 198.493 70.7507C191.759 49.5147 178.695 16.9413 129.778 10.8986Z" fill="black"/>
</g>
<path d="M146.813 46.5222C128.512 38.2925 109.75 27.8759 98.7582 10.3807C96.3411 6.52482 94.4419 2.78406 93.2909 1C92.0823 2.78406 90.2407 6.58237 87.8236 10.3807C76.8316 27.8759 58.0702 38.235 39.7692 46.5222C38.9635 46.925 25.8997 51.4715 25.8997 51.5866C25.8997 51.7017 28.6621 119.266 49.4952 148.904C67.2782 174.168 87.7085 183.146 93.3484 185.218C98.9308 183.146 119.361 174.168 137.202 148.904C158.035 119.323 160.797 51.6441 160.797 51.5866C160.682 51.529 147.561 46.8675 146.813 46.5222Z" fill="#00145D"/>
<path d="M141.058 51.529C124.713 44.1626 108.024 34.897 98.1826 19.2434C96.0533 15.7904 94.3268 12.4525 93.2909 10.8411C92.255 12.4525 90.5285 15.8479 88.3991 19.2434C78.6156 34.8395 61.8685 44.1626 45.5818 51.529C44.8336 51.8743 33.2085 55.9028 33.2085 56.0755C33.2085 56.1906 35.6831 116.446 54.2719 142.919C70.0981 165.478 88.284 173.478 93.3484 175.319C98.3553 173.478 116.599 165.421 132.483 142.919C151.071 116.503 153.546 56.0755 153.546 56.0755C153.431 56.0179 141.748 51.8168 141.058 51.529Z" fill="white"/>
<path d="M93.7513 140.559C116.985 140.559 135.82 121.724 135.82 98.4901C135.82 75.2559 116.985 56.4209 93.7513 56.4209C70.5171 56.4209 51.6821 75.2559 51.6821 98.4901C51.6821 121.724 70.5171 140.559 93.7513 140.559Z" fill="black" stroke="#263238" stroke-linecap="round" stroke-linejoin="round"/>
<path d="M146.813 46.5222C128.512 38.2925 109.75 27.8759 98.7582 10.3807C96.3411 6.52482 94.4419 2.78406 93.2909 1C92.0823 2.78406 90.2407 6.58237 87.8236 10.3807C76.8316 27.8759 58.0702 38.235 39.7692 46.5222C38.9635 46.925 25.8997 51.4715 25.8997 51.5866C25.8997 51.7017 28.6621 119.266 49.4952 148.904C67.2782 174.168 87.7085 183.146 93.3485 185.218C98.9308 183.146 119.361 174.168 137.202 148.904C158.035 119.323 160.797 51.6441 160.797 51.5866C160.682 51.529 147.561 46.8675 146.813 46.5222Z" stroke="#263238" stroke-miterlimit="10"/>
<path d="M92.8166 75.5682C87.0306 75.9704 81.8209 79.1071 78.7578 84.0383C77.8605 85.4809 77.1566 87.0821 76.7118 88.6949C75.5322 92.9764 75.9499 97.5053 77.8914 101.439C78.6301 102.935 79.3302 103.991 80.5059 105.384C80.6374 105.542 83.4182 109.158 86.6787 113.417C90.2291 118.054 92.6928 121.237 92.8204 121.353C93.5398 122.011 94.5299 122.011 95.2493 121.353C95.3769 121.237 97.8406 118.054 101.391 113.417C104.651 109.158 107.432 105.542 107.564 105.384C108.74 103.991 109.44 102.935 110.178 101.439C112.367 97.0025 112.611 91.7619 110.851 87.1479C109.486 83.578 107.111 80.6154 103.897 78.4767C100.707 76.3533 96.688 75.3013 92.8166 75.5682ZM94.9786 84.2858C95.8449 84.398 96.5179 84.5991 97.303 84.982C99.4418 86.0185 100.904 87.9059 101.41 90.2961C101.507 90.7447 101.515 90.8569 101.519 91.7116C101.519 92.7443 101.48 93.046 101.248 93.8582C100.625 96.0279 98.9815 97.8496 96.8776 98.7043C96.1002 99.0214 95.4659 99.1684 94.5879 99.2419C93.4509 99.3386 92.2944 99.1529 91.1922 98.7043C89.0882 97.8496 87.4444 96.0279 86.8218 93.8582C86.5897 93.046 86.551 92.7443 86.551 91.7116C86.5549 90.8569 86.5626 90.7447 86.6593 90.2961C87.0925 88.2579 88.2296 86.5638 89.9158 85.4538C90.6004 85.0052 91.606 84.5759 92.3795 84.4057C93.1879 84.2278 94.1857 84.1814 94.9786 84.2858Z" fill="#F3BE22"/>
</svg>
