<svg width="200" height="198" viewBox="0 0 200 198" fill="none" xmlns="http://www.w3.org/2000/svg">
<g opacity="0.25">
<path d="M129.778 10.8986C129.778 10.8986 73.1484 8.13615 27.0507 39.5585C-19.047 70.9809 4.37592 180.902 20.0871 187.865C35.7983 194.829 96.3986 206.857 143.129 186.427C189.86 165.996 205.226 91.9867 198.493 70.7507C191.759 49.5147 178.695 16.9413 129.778 10.8986Z" fill="#80BC18"/>
<path opacity="0.7" d="M129.778 10.8986C129.778 10.8986 73.1484 8.13615 27.0507 39.5585C-19.047 70.9809 4.37592 180.902 20.0871 187.865C35.7983 194.829 96.3986 206.857 143.129 186.427C189.86 165.996 205.226 91.9867 198.493 70.7507C191.759 49.5147 178.695 16.9413 129.778 10.8986Z" fill="black"/>
</g>
<path d="M146.813 46.5222C128.512 38.2925 109.75 27.8759 98.7582 10.3807C96.3411 6.52482 94.4419 2.78406 93.2909 1C92.0823 2.78406 90.2407 6.58237 87.8236 10.3807C76.8316 27.8759 58.0702 38.235 39.7692 46.5222C38.9635 46.925 25.8997 51.4715 25.8997 51.5866C25.8997 51.7017 28.6621 119.266 49.4952 148.904C67.2782 174.168 87.7085 183.146 93.3484 185.218C98.9308 183.146 119.361 174.168 137.202 148.904C158.035 119.323 160.797 51.6441 160.797 51.5866C160.682 51.529 147.561 46.8675 146.813 46.5222Z" fill="#003A5D"/>
<path d="M141.058 51.529C124.713 44.1626 108.024 34.897 98.1828 19.2434C96.0534 15.7904 94.3269 12.4525 93.291 10.8411C92.2551 12.4525 90.5286 15.8479 88.3992 19.2434C78.6157 34.8395 61.8686 44.1626 45.5819 51.529C44.8338 51.8743 33.2086 55.9028 33.2086 56.0755C33.2086 56.1906 35.6833 116.446 54.272 142.919C70.0983 165.478 88.2841 173.478 93.3485 175.319C98.3554 173.478 116.599 165.421 132.483 142.919C151.071 116.503 153.546 56.0755 153.546 56.0755C153.431 56.0179 141.748 51.8168 141.058 51.529Z" fill="white"/>
<path d="M93.7513 140.559C116.985 140.559 135.82 121.724 135.82 98.4901C135.82 75.2559 116.985 56.4209 93.7513 56.4209C70.5171 56.4209 51.6821 75.2559 51.6821 98.4901C51.6821 121.724 70.5171 140.559 93.7513 140.559Z" fill="#D51C29" stroke="#263238" stroke-linecap="round" stroke-linejoin="round"/>
<path d="M146.813 46.5222C128.512 38.2925 109.75 27.8759 98.7582 10.3807C96.3411 6.52482 94.4419 2.78406 93.2909 1C92.0823 2.78406 90.2407 6.58237 87.8236 10.3807C76.8316 27.8759 58.0702 38.235 39.7692 46.5222C38.9635 46.925 25.8997 51.4715 25.8997 51.5866C25.8997 51.7017 28.6621 119.266 49.4952 148.904C67.2782 174.168 87.7085 183.146 93.3485 185.218C98.9308 183.146 119.361 174.168 137.202 148.904C158.035 119.323 160.797 51.6441 160.797 51.5866C160.682 51.529 147.561 46.8675 146.813 46.5222Z" stroke="#263238" stroke-miterlimit="10"/>
<path d="M128.795 98.6607C128.795 118.203 112.975 134.023 93.4325 134.023C73.8902 134.023 58.0702 118.203 58.0702 98.6607C58.0702 79.1184 73.8902 63.2984 93.4325 63.2984C112.89 63.2138 128.71 78.9492 128.795 98.3646C128.795 98.4915 128.795 98.5761 128.795 98.6607Z" fill="#FFCF01" stroke="#263238" stroke-linecap="round" stroke-linejoin="round"/>
<path d="M122.831 118.33C111.96 134.573 90.0062 138.887 73.7632 128.016C70.337 125.69 67.2914 122.814 64.8804 119.472C65.0919 119.134 65.3034 118.753 65.5149 118.414C66.8261 116.257 74.8207 112.831 86.0724 111.604C88.6103 111.308 91.1906 111.181 93.7285 111.139C96.5203 111.097 99.2698 111.266 102.019 111.604C111.875 112.873 120.039 116.13 122.831 118.33Z" fill="black" stroke="black" stroke-linecap="round" stroke-linejoin="round"/>
<path d="M102.907 112.493C101.131 115.665 97.7046 117.611 94.0669 117.568C88.8641 117.568 85.0571 113.042 85.0571 113.042C86.876 111.393 87.0029 108.347 86.7068 105.978C86.5799 104.794 86.3684 103.652 86.0723 102.51H101.638C100.708 105.64 100.708 107.84 101.089 109.405C101.638 111.647 102.907 112.493 102.907 112.493Z" fill="white" stroke="#263238" stroke-linecap="round" stroke-linejoin="round"/>
<path d="M101.089 109.362C89.837 112.323 87.5951 105.894 87.5951 105.894L86.7491 105.936C86.6222 104.752 86.4107 103.61 86.1146 102.468H101.681C100.666 105.598 100.708 107.84 101.089 109.362Z" fill="#263238"/>
<path d="M105.023 91.5543C105.023 91.5543 106.292 90.2008 106.884 90.6237C107.73 91.3005 108.11 92.4426 107.899 93.5001C107.561 94.6422 106.122 96.6726 105.995 97.8569C105.869 99.0413 105.149 100.353 104.303 99.5912C103.457 98.8298 105.023 91.5543 105.023 91.5543Z" fill="white" stroke="#263238" stroke-linecap="round" stroke-linejoin="round"/>
<path d="M82.6884 91.5543C82.6884 91.5543 81.4194 90.2008 80.8272 90.6237C79.9812 91.3005 79.6005 92.4426 79.812 93.5001C80.1504 94.6422 81.5886 96.6726 81.7155 97.8569C81.8424 99.0413 82.5615 100.353 83.4075 99.5912C84.2112 98.8298 82.6884 91.5543 82.6884 91.5543Z" fill="white" stroke="#263238" stroke-linecap="round" stroke-linejoin="round"/>
<path d="M93.5594 75.819C109.337 75.819 105.572 96.7995 102.696 103.525C101.681 105.894 96.3934 108.982 93.8555 108.982C91.4867 108.982 86.0301 105.259 85.0995 103.06C82.1385 96.2919 78.5854 75.819 93.5594 75.819Z" fill="white" stroke="#263238" stroke-linecap="round" stroke-linejoin="round"/>
<path d="M96.2665 88.7626C96.2665 88.7626 100.37 87.4936 101.639 90.0315" stroke="#263238" stroke-linecap="round" stroke-linejoin="round"/>
<path d="M99.2697 92.2312C99.2697 92.6965 99.0159 93.1195 98.7198 93.1195C98.4237 93.1195 98.1699 92.7388 98.1699 92.2312C98.1699 91.7236 98.4237 91.3429 98.7198 91.3429C99.0582 91.3429 99.2697 91.7659 99.2697 92.2312Z" fill="#263238"/>
<path d="M91.4444 88.7626C91.4444 88.7626 87.3414 87.4936 86.0724 90.0315" stroke="#263238" stroke-linecap="round" stroke-linejoin="round"/>
<path d="M88.3988 92.2312C88.3988 92.6965 88.6526 93.1195 88.9487 93.1195C89.2448 93.1195 89.4986 92.7388 89.4986 92.2312C89.4986 91.7236 89.2448 91.3429 88.9487 91.3429C88.6526 91.3429 88.3988 91.7659 88.3988 92.2312Z" fill="#263238"/>
<path d="M100.116 81.1911C96.1819 82.4601 91.9096 82.4601 87.9758 81.1911C87.9758 81.1911 85.8608 81.0642 85.0148 82.1217C84.1688 83.1792 85.0148 86.4785 85.2263 87.8321C85.4378 89.1857 83.3652 90.1163 83.6613 93.5002L82.8576 94.6846C82.8576 94.6846 80.6157 89.228 81.2079 84.5328C81.7578 79.8375 84.7187 78.0186 84.7187 78.0186C84.7187 78.0186 86.0723 73.9579 93.9823 74.0002C102.527 74.0425 103.415 78.6531 103.415 78.6531C103.415 78.6531 109.21 82.5024 104.938 95.1076L104.007 93.5425C104.219 91.8928 103.838 90.1586 102.907 88.7627C102.146 87.6629 103.33 84.4059 103.077 82.7139C102.781 81.0219 100.116 81.1911 100.116 81.1911Z" fill="#263238"/>
<path d="M94.786 91.3429C94.786 91.3429 94.8283 95.1921 95.8435 96.4188C96.3511 97.0533 95.3359 98.4492 93.8131 98.703" stroke="#263238" stroke-linecap="round" stroke-linejoin="round"/>
<path d="M90.387 100.945C90.5985 101.749 91.1484 102.425 91.8674 102.848C92.9249 103.314 96.2243 103.102 96.8165 102.721C97.451 102.341 97.7471 101.072 97.7471 101.072" fill="white"/>
<path d="M90.387 100.945C90.5985 101.749 91.1484 102.425 91.8674 102.848C92.9249 103.314 96.2243 103.102 96.8165 102.721C97.451 102.341 97.7471 101.072 97.7471 101.072" stroke="#263238" stroke-linecap="round" stroke-linejoin="round"/>
<path d="M90.0485 100.86C92.7133 101.452 95.5051 101.452 98.1699 100.86" stroke="#263238" stroke-linecap="round" stroke-linejoin="round"/>
<path d="M101.639 81.3602C101.639 81.3602 99.862 83.9827 94.067 84.5326C94.4899 84.1096 94.8706 83.602 95.0821 83.0521C93.3056 84.3634 91.106 84.871 88.9487 84.5326C86.7069 84.2365 84.465 85.1248 83.0691 86.9437L82.0962 91.3851C82.0962 91.3851 78.6277 87.4513 81.081 81.191L80.1927 81.91C80.1927 81.91 81.1656 73.4925 91.2752 73.1964L90.0485 72.4773C90.0485 72.4773 100.116 70.32 104.05 76.961C104.05 76.961 107.56 77.5955 108.406 83.6866L107.434 83.0521C107.434 83.0521 108.999 88.0857 105.742 92.2734C105.742 92.2311 101.639 85.5901 101.639 81.3602Z" fill="#263238"/>
</svg>
