<svg xmlns="http://www.w3.org/2000/svg" xmlns:xlink="http://www.w3.org/1999/xlink" width="1080" zoomAndPan="magnify" viewBox="0 0 810 809.999993" height="1080" preserveAspectRatio="xMidYMid meet" version="1.0"><defs><clipPath id="238033e6d3"><path d="M 145 515 L 189 515 L 189 577.207031 L 145 577.207031 Z M 145 515 " clip-rule="nonzero"/></clipPath></defs><path fill="#1d252c" d="M 144.480469 400.472656 L 0 400.472656 L 74.007812 272.316406 L 0.707031 272.316406 L 0.707031 233.105469 L 145.1875 233.105469 L 71.003906 361.082031 L 144.480469 361.082031 Z M 144.480469 400.472656 " fill-opacity="1" fill-rule="nonzero"/><path fill="#1d252c" d="M 273.949219 388.871094 C 273.949219 388.488281 273.53125 388.261719 273.210938 388.460938 C 260.226562 396.363281 245.6875 400.480469 229.4375 400.480469 C 206.476562 400.480469 186.890625 392.277344 170.519531 375.898438 C 154.132812 359.519531 145.769531 339.75 145.769531 316.769531 C 145.769531 293.792969 154.132812 274.015625 170.519531 257.808594 C 186.890625 241.234375 206.476562 233.042969 229.445312 233.042969 C 252.410156 233.042969 272.355469 241.234375 288.734375 257.804688 C 305.105469 274.007812 313.300781 293.605469 313.300781 316.765625 L 313.300781 399.980469 C 313.300781 400.25 313.082031 400.480469 312.800781 400.480469 L 274.445312 400.480469 C 274.175781 400.480469 273.949219 400.257812 273.949219 399.980469 Z M 198.742188 285.488281 C 190.296875 293.964844 185.933594 304.265625 185.820312 316.375 C 185.71875 328.300781 189.898438 338.667969 198.191406 347.476562 C 206.832031 356.109375 217.121094 360.464844 229.042969 360.574219 C 241.152344 360.679688 251.691406 356.503906 260.308594 348.027344 C 268.125 340.191406 272.4375 331.011719 273.261719 320.484375 C 274.34375 306.664062 268.769531 292.859375 258.378906 283.6875 C 250.378906 276.628906 240.769531 273.042969 229.820312 272.945312 C 217.898438 272.839844 207.53125 277.023438 198.734375 285.488281 " fill-opacity="1" fill-rule="nonzero"/><path fill="#1d252c" d="M 445.476562 337.953125 L 477.523438 362 C 469.882812 373.46875 459.191406 383.96875 443.058594 393.226562 C 439.957031 395.007812 436.613281 396.441406 433.128906 397.25 C 398.484375 405.347656 370.230469 398.210938 347.917969 375.890625 C 331.546875 359.511719 323.175781 339.742188 323.175781 316.765625 C 323.175781 293.785156 331.539062 274.007812 347.917969 257.804688 C 364.296875 241.234375 383.882812 233.042969 406.84375 233.042969 C 429.804688 233.042969 449.746094 241.234375 466.125 257.804688 C 470.578125 262.082031 474.316406 266.535156 477.523438 271.519531 L 445.476562 295.566406 C 441.492188 288.332031 435.332031 282.550781 426.929688 276.800781 C 426.324219 276.386719 425.625 276.050781 424.925781 275.84375 C 405.074219 269.847656 388.734375 273.171875 375.867188 285.765625 C 367.503906 294.324219 363.234375 304.65625 363.234375 316.769531 C 363.234375 328.886719 367.503906 339.023438 375.867188 347.753906 C 389.164062 360.78125 406.15625 363.875 426.902344 357.074219 C 435.824219 350.488281 441.996094 344.578125 445.484375 337.960938 " fill-opacity="1" fill-rule="nonzero"/><path fill="#1d252c" d="M 668.058594 254.847656 C 667.976562 254.917969 667.886719 254.984375 667.800781 255.0625 C 665.003906 257.492188 662.078125 260.402344 659.066406 263.667969 C 637.6875 286.867188 611.769531 328.257812 592.367188 347.273438 C 592.09375 347.519531 591.789062 347.707031 591.523438 347.972656 C 583.246094 356.257812 573.628906 361.359375 562.050781 361.359375 C 550.472656 361.359375 539.953125 356.71875 531.878906 348.433594 C 523.601562 340.261719 519.847656 330.785156 519.847656 319.195312 C 519.847656 307.605469 521.972656 297.5 530.085938 288.535156 C 537.789062 280.015625 549.585938 273.183594 561.171875 273.183594 C 570.855469 273.183594 579.234375 274.324219 586.996094 279.570312 C 588.011719 280.257812 590.792969 282.246094 591.746094 283.078125 C 596.726562 287.109375 599.984375 291.703125 605.203125 303.695312 L 633.273438 272.382812 C 633.417969 272.042969 630.535156 267.15625 625.835938 260.929688 C 624.96875 260.015625 624.09375 259.113281 623.160156 258.21875 C 622.164062 257.207031 621.152344 256.234375 620.128906 255.289062 C 620.070312 255.230469 620.007812 255.179688 619.949219 255.121094 C 607.605469 243.742188 593.019531 236.632812 577.0625 234.117188 C 572.121094 233.398438 566.984375 233.054688 561.632812 233.042969 C 550.71875 233.183594 540.574219 235.175781 531.171875 239.042969 C 530.785156 239.214844 530.390625 239.367188 530 239.542969 C 529.539062 239.746094 529.085938 239.957031 528.628906 240.164062 C 520.546875 243.925781 513.046875 249.089844 506.046875 255.46875 C 505.167969 256.300781 504.285156 257.136719 503.425781 258.011719 C 486.898438 274.363281 478.449219 294.140625 478.449219 317.515625 C 478.449219 340.890625 486.898438 360.660156 503.425781 377.1875 C 514.308594 388.070312 525.691406 395.421875 538.476562 399.222656 C 544.34375 400.859375 550.480469 401.859375 556.886719 402.175781 C 565.503906 402.496094 574.796875 401.515625 584.96875 399.175781 C 590.402344 397.660156 595.621094 395.625 600.601562 393 L 600.601562 393.011719 C 600.601562 393.011719 609.722656 389.777344 620.839844 378.082031 C 623.472656 375.308594 628.148438 369.496094 633.949219 362.078125 C 637.390625 357.679688 641.230469 352.707031 645.28125 347.457031 C 641.886719 338.257812 640.027344 328.316406 640.027344 317.9375 C 640.027344 292.898438 650.863281 270.429688 668.054688 254.839844 " fill-opacity="1" fill-rule="nonzero"/><path fill="#80ba27" d="M 785.015625 257.992188 C 768.367188 241.4375 748.28125 233.132812 724.777344 233.082031 C 724.136719 233.082031 723.527344 233.152344 722.890625 233.160156 L 722.878906 233.082031 C 722.878906 233.082031 717.320312 232.730469 708.675781 234.46875 C 706.765625 234.804688 704.875 235.207031 703.015625 235.667969 C 702.890625 235.699219 702.765625 235.738281 702.644531 235.769531 C 702.023438 235.925781 701.417969 236.113281 700.8125 236.300781 C 700.765625 236.316406 700.71875 236.328125 700.679688 236.339844 C 700.351562 236.4375 700.019531 236.53125 699.691406 236.625 C 687.800781 240.359375 677.070312 246.679688 668.058594 254.855469 C 650.871094 270.445312 640.03125 292.910156 640.03125 317.949219 C 640.03125 328.328125 641.890625 338.269531 645.285156 347.46875 C 645.285156 347.476562 645.285156 347.480469 645.292969 347.488281 C 658.167969 330.695312 671.929688 310.722656 682.4375 297.964844 C 686.761719 292.71875 690.238281 288.75 692.875 286.058594 C 701.855469 277.257812 712.484375 272.855469 724.769531 272.855469 C 737.054688 272.855469 747.867188 277.257812 756.664062 286.058594 C 765.464844 294.859375 769.863281 305.496094 769.863281 317.96875 C 769.863281 330.441406 765.464844 340.890625 756.664062 349.878906 C 747.867188 358.683594 737.234375 363.085938 724.769531 363.085938 C 712.304688 363.085938 701.859375 358.683594 692.875 349.878906 C 690.261719 347.152344 688.085938 344.253906 686.253906 341.226562 C 686.253906 341.226562 682.160156 333.265625 681.347656 329.550781 L 652.269531 361.988281 C 667.191406 386.671875 694.265625 403.167969 725.203125 403.167969 C 764.375 403.167969 797.347656 376.703125 807.292969 340.675781 C 809.078125 333.683594 809.988281 326.324219 809.988281 318.585938 C 809.988281 294.964844 801.660156 274.765625 785.003906 258.003906 " fill-opacity="1" fill-rule="nonzero"/><g clip-path="url(#238033e6d3)"><path fill="#80ba27" d="M 145.890625 577.121094 C 145.867188 576.5625 145.808594 576.003906 145.808594 575.449219 C 145.808594 558.101562 145.820312 540.753906 145.761719 523.410156 C 145.761719 522.082031 146.171875 521.667969 147.390625 521.503906 C 156.328125 520.296875 165.265625 519.042969 174.199219 517.796875 C 178.34375 517.21875 182.492188 516.648438 186.625 516.015625 C 187.390625 515.898438 187.609375 516.019531 187.601562 516.792969 C 187.578125 519.824219 187.558594 522.851562 187.617188 525.886719 C 187.636719 526.769531 187.136719 526.878906 186.515625 526.96875 C 181.628906 527.648438 176.75 528.316406 171.867188 528.996094 C 167.582031 529.59375 163.308594 530.230469 159.019531 530.804688 C 158.175781 530.917969 157.863281 531.195312 157.882812 532.089844 C 157.949219 535.070312 157.9375 538.058594 157.882812 541.039062 C 157.871094 541.851562 158.066406 542.050781 158.890625 541.929688 C 164.640625 541.09375 170.402344 540.308594 176.15625 539.5 C 178.363281 539.1875 180.574219 538.875 182.78125 538.539062 C 183.695312 538.394531 184.125 538.585938 184.097656 539.652344 C 184.027344 542.5 184.058594 545.34375 184.085938 548.183594 C 184.085938 548.941406 183.949219 549.320312 183.046875 549.441406 C 175.027344 550.519531 167.019531 551.671875 159.003906 552.78125 C 158.246094 552.882812 157.863281 553.097656 157.878906 553.980469 C 157.929688 557.148438 157.929688 560.320312 157.878906 563.488281 C 157.863281 564.371094 158.15625 564.421875 158.914062 564.3125 C 166.003906 563.292969 173.097656 562.320312 180.191406 561.324219 C 182.402344 561.011719 184.609375 560.695312 186.820312 560.363281 C 187.628906 560.242188 188.109375 560.324219 188.082031 561.386719 C 188.011719 564.277344 188.039062 567.171875 188.070312 570.0625 C 188.082031 570.871094 187.847656 571.15625 186.996094 571.273438 C 175.015625 572.917969 163.042969 574.597656 151.074219 576.324219 C 149.527344 576.542969 147.925781 576.570312 146.429688 577.121094 L 145.871094 577.121094 Z M 145.890625 577.121094 " fill-opacity="1" fill-rule="nonzero"/></g><path fill="#80ba27" d="M 613.144531 455.136719 C 627.527344 455.136719 636.921875 462.285156 639.359375 473.976562 C 641.398438 483.757812 638.761719 492.582031 632.496094 500.210938 C 625.421875 508.820312 616.132812 513.085938 604.988281 512.988281 C 593.007812 512.882812 583.910156 505.363281 581.558594 493.605469 C 580.117188 486.398438 581.386719 479.476562 585.011719 473.117188 C 591.660156 461.46875 601.910156 455.71875 613.144531 455.136719 Z M 593.832031 486.242188 C 593.902344 487.214844 593.875 488.207031 594.058594 489.164062 C 595.832031 498.65625 603.621094 503.464844 612.929688 500.859375 C 622.539062 498.167969 628.648438 488.402344 626.914062 478.476562 C 625.675781 471.40625 620.058594 466.609375 612.976562 466.59375 C 602.480469 466.570312 593.921875 475.378906 593.824219 486.25 Z M 593.832031 486.242188 " fill-opacity="1" fill-rule="nonzero"/><path fill="#80ba27" d="M 358.363281 519.429688 C 358.363281 510.808594 358.40625 502.179688 358.316406 493.558594 C 358.304688 492.074219 358.855469 491.707031 360.128906 491.53125 C 366.765625 490.636719 373.386719 489.675781 380.019531 488.75 C 386.375 487.863281 392.730469 487.027344 399.082031 486.085938 C 400.039062 485.945312 400.175781 486.183594 400.171875 487.019531 C 400.136719 489.910156 400.117188 492.800781 400.175781 495.6875 C 400.195312 496.574219 399.890625 496.917969 399.050781 497.035156 C 393.476562 497.785156 387.90625 498.558594 382.332031 499.335938 C 378.699219 499.847656 375.070312 500.40625 371.429688 500.890625 C 370.679688 500.996094 370.445312 501.253906 370.457031 502.019531 C 370.503906 505.046875 370.503906 508.078125 370.457031 511.105469 C 370.445312 511.941406 370.683594 512.09375 371.476562 511.980469 C 377.226562 511.144531 382.980469 510.363281 388.734375 509.558594 C 390.945312 509.246094 393.152344 508.941406 395.355469 508.597656 C 396.277344 508.457031 396.691406 508.65625 396.664062 509.71875 C 396.601562 512.558594 396.625 515.40625 396.652344 518.25 C 396.652344 519.007812 396.515625 519.382812 395.617188 519.507812 C 387.601562 520.582031 379.59375 521.738281 371.585938 522.847656 C 370.839844 522.949219 370.4375 523.152344 370.453125 524.039062 C 370.503906 527.207031 370.503906 530.378906 370.453125 533.546875 C 370.4375 534.398438 370.691406 534.5 371.476562 534.390625 C 378.5625 533.371094 385.652344 532.402344 392.738281 531.410156 C 394.992188 531.089844 397.246094 530.773438 399.503906 530.429688 C 400.339844 530.300781 400.664062 530.535156 400.644531 531.441406 C 400.589844 534.332031 400.605469 537.222656 400.636719 540.113281 C 400.644531 540.890625 400.472656 541.230469 399.59375 541.351562 C 387.621094 542.992188 375.652344 544.691406 363.6875 546.375 C 362.171875 546.589844 360.648438 546.789062 359.140625 547.054688 C 358.570312 547.152344 358.363281 546.992188 358.367188 546.441406 C 358.367188 546.066406 358.367188 545.695312 358.367188 545.320312 C 358.367188 536.699219 358.367188 528.070312 358.367188 519.449219 Z M 358.363281 519.429688 " fill-opacity="1" fill-rule="nonzero"/><path fill="#80ba27" d="M 261.3125 533.125 C 261.3125 524.40625 261.339844 515.691406 261.28125 506.976562 C 261.273438 505.835938 261.625 505.460938 262.6875 505.320312 C 269.546875 504.386719 276.402344 503.394531 283.265625 502.433594 C 289.523438 501.558594 295.792969 500.730469 302.046875 499.789062 C 303.039062 499.640625 303.128906 499.9375 303.117188 500.742188 C 303.089844 503.632812 303.0625 506.523438 303.128906 509.410156 C 303.148438 510.316406 302.8125 510.632812 301.988281 510.742188 C 296.417969 511.496094 290.84375 512.265625 285.273438 513.046875 C 281.636719 513.558594 278.011719 514.113281 274.367188 514.601562 C 273.597656 514.703125 273.398438 514.988281 273.410156 515.742188 C 273.449219 518.769531 273.457031 521.800781 273.410156 524.828125 C 273.398438 525.691406 273.683594 525.796875 274.445312 525.683594 C 280.199219 524.855469 285.953125 524.066406 291.707031 523.261719 C 293.914062 522.949219 296.125 522.644531 298.328125 522.300781 C 299.273438 522.152344 299.648438 522.398438 299.625 523.4375 C 299.558594 526.230469 299.578125 529.03125 299.617188 531.824219 C 299.628906 532.71875 299.429688 533.085938 298.417969 533.222656 C 290.449219 534.285156 282.488281 535.441406 274.523438 536.542969 C 273.765625 536.644531 273.390625 536.875 273.402344 537.75 C 273.457031 540.917969 273.457031 544.085938 273.402344 547.257812 C 273.390625 548.140625 273.6875 548.191406 274.441406 548.082031 C 281.527344 547.0625 288.617188 546.089844 295.703125 545.097656 C 297.914062 544.789062 300.121094 544.464844 302.324219 544.140625 C 303.117188 544.023438 303.621094 544.074219 303.59375 545.152344 C 303.523438 548.042969 303.550781 550.933594 303.582031 553.816406 C 303.589844 554.609375 303.386719 554.917969 302.519531 555.042969 C 290.546875 556.6875 278.582031 558.378906 266.613281 560.066406 C 265.277344 560.253906 263.910156 560.320312 262.617188 560.660156 C 261.289062 561.019531 261.28125 560.390625 261.289062 559.417969 C 261.3125 554.667969 261.300781 549.910156 261.300781 545.152344 C 261.300781 541.144531 261.300781 537.132812 261.300781 533.125 Z M 261.3125 533.125 " fill-opacity="1" fill-rule="nonzero"/><path fill="#80ba27" d="M 209.183594 568.445312 C 202.933594 568.414062 197.152344 566.832031 191.9375 563.3125 C 191.132812 562.773438 190.894531 562.410156 191.59375 561.53125 C 193.589844 559.015625 195.496094 556.421875 197.378906 553.816406 C 197.929688 553.058594 198.332031 552.949219 199.15625 553.488281 C 202.558594 555.695312 206.242188 557.179688 210.34375 557.414062 C 213.5 557.589844 216.582031 557.265625 219.433594 555.78125 C 221.820312 554.535156 222.902344 552.546875 222.660156 550.246094 C 222.5 548.65625 221.578125 547.738281 220.199219 547.152344 C 217.679688 546.082031 214.988281 545.816406 212.3125 545.492188 C 208.71875 545.058594 205.101562 544.710938 201.636719 543.535156 C 195.941406 541.613281 193.351562 537.8125 193.125 531.816406 C 192.761719 522.074219 199.550781 514.855469 208.472656 512.378906 C 216.589844 510.128906 224.480469 510.632812 231.976562 514.828125 C 233.074219 515.4375 233.144531 515.882812 232.464844 516.902344 C 230.746094 519.449219 229.121094 522.054688 227.546875 524.699219 C 227.007812 525.605469 226.601562 525.632812 225.707031 525.167969 C 221.726562 523.09375 217.535156 521.808594 212.96875 522.261719 C 211.097656 522.449219 209.300781 522.898438 207.714844 523.953125 C 205.828125 525.210938 205.042969 526.949219 205.382812 529.230469 C 205.601562 530.726562 206.554688 531.519531 207.824219 532.003906 C 210.144531 532.894531 212.605469 533.160156 215.046875 533.484375 C 219.105469 534.015625 223.171875 534.46875 227.015625 536.003906 C 232.257812 538.089844 234.671875 541.804688 234.839844 547.378906 C 235.140625 557.207031 228.785156 564.21875 219.355469 567.019531 C 216.039062 568.007812 212.636719 568.492188 209.164062 568.445312 Z M 209.183594 568.445312 " fill-opacity="1" fill-rule="nonzero"/><path fill="#80ba27" d="M 404.878906 513.117188 C 404.878906 497.382812 416.238281 483.578125 431.371094 480.597656 C 437.210938 479.441406 443.007812 479.234375 448.691406 481.414062 C 450.925781 482.269531 452.925781 483.519531 454.832031 484.957031 C 455.53125 485.488281 455.53125 485.847656 455.007812 486.5 C 452.804688 489.277344 450.632812 492.070312 448.503906 494.902344 C 447.992188 495.582031 447.648438 495.621094 446.972656 495.128906 C 444.425781 493.273438 441.675781 491.847656 438.492188 491.464844 C 432.015625 490.6875 426.664062 492.898438 422.476562 497.8125 C 418.179688 502.847656 416.769531 508.761719 418.117188 515.183594 C 419.832031 523.363281 426.921875 527.636719 435.203125 525.835938 C 440.046875 524.777344 443.890625 522.121094 447.1875 518.582031 C 448.050781 517.660156 448.527344 517.707031 449.398438 518.515625 C 451.300781 520.292969 453.308594 521.972656 455.304688 523.648438 C 455.882812 524.136719 455.960938 524.425781 455.433594 525.0625 C 447.898438 534.144531 438.1875 538.242188 426.492188 537.617188 C 415.628906 537.042969 406.414062 528.207031 405.160156 517.402344 C 404.984375 515.871094 404.816406 514.347656 404.878906 513.117188 Z M 404.878906 513.117188 " fill-opacity="1" fill-rule="nonzero"/><path fill="#80ba27" d="M 310.347656 526.195312 C 310.347656 517.480469 310.371094 508.761719 310.3125 500.042969 C 310.308594 498.886719 310.578125 498.441406 311.757812 498.285156 C 318.582031 497.378906 325.390625 496.398438 332.207031 495.441406 C 338.5625 494.546875 344.917969 493.675781 351.265625 492.742188 C 352.21875 492.601562 352.601562 492.671875 352.582031 493.769531 C 352.519531 496.75 352.542969 499.738281 352.574219 502.71875 C 352.582031 503.457031 352.394531 503.742188 351.597656 503.855469 C 344.457031 504.824219 337.324219 505.863281 330.191406 506.875 C 328.027344 507.179688 325.863281 507.46875 323.691406 507.757812 C 322.960938 507.851562 322.550781 508.085938 322.570312 508.980469 C 322.628906 512.152344 322.628906 515.320312 322.570312 518.488281 C 322.558594 519.421875 322.910156 519.59375 323.726562 519.476562 C 330.535156 518.496094 337.351562 517.539062 344.167969 516.570312 C 345.5 516.382812 346.847656 516.242188 348.171875 515.988281 C 348.863281 515.851562 348.960938 516.117188 348.953125 516.6875 C 348.941406 519.859375 348.910156 523.027344 348.972656 526.195312 C 348.992188 527.265625 348.234375 527.128906 347.679688 527.214844 C 343.582031 527.824219 339.480469 528.382812 335.386719 528.957031 C 331.519531 529.503906 327.65625 530.113281 323.785156 530.558594 C 322.667969 530.6875 322.578125 531.15625 322.585938 532.058594 C 322.609375 538.164062 322.558594 544.277344 322.636719 550.382812 C 322.65625 551.703125 322.332031 552.230469 320.964844 552.378906 C 317.6875 552.726562 314.414062 553.214844 311.15625 553.738281 C 310.105469 553.90625 310.378906 553.257812 310.371094 552.773438 C 310.359375 547.503906 310.367188 542.234375 310.367188 536.96875 C 310.367188 533.378906 310.367188 529.789062 310.367188 526.195312 Z M 310.347656 526.195312 " fill-opacity="1" fill-rule="nonzero"/><path fill="#80ba27" d="M 555.0625 502.941406 C 557.011719 497.441406 558.832031 492.328125 560.644531 487.207031 C 563.453125 479.28125 566.269531 471.351562 569.035156 463.414062 C 569.355469 462.503906 569.789062 462.097656 570.753906 461.972656 C 574.667969 461.480469 578.558594 460.902344 582.714844 460.320312 C 581.625 463.207031 580.632812 465.84375 579.628906 468.476562 C 573.378906 484.894531 567.105469 501.300781 560.890625 517.730469 C 560.464844 518.859375 559.84375 519.292969 558.722656 519.429688 C 556.046875 519.753906 553.375 520.136719 550.707031 520.558594 C 549.753906 520.707031 549.316406 520.390625 548.9375 519.507812 C 541.832031 502.777344 534.699219 486.054688 527.53125 469.351562 C 527.09375 468.320312 527.167969 468.085938 528.34375 467.949219 C 531.988281 467.523438 535.625 466.957031 539.253906 466.382812 C 540.246094 466.226562 540.710938 466.453125 541.09375 467.449219 C 545.511719 478.800781 549.988281 490.125 554.445312 501.457031 C 554.59375 501.832031 554.75 502.207031 555.054688 502.933594 Z M 555.0625 502.941406 " fill-opacity="1" fill-rule="nonzero"/><path fill="#80ba27" d="M 474.800781 508.667969 C 474.800781 501.765625 474.789062 494.871094 474.820312 487.964844 C 474.820312 487.03125 474.742188 486.722656 473.628906 486.902344 C 468.945312 487.65625 464.238281 488.25 459.542969 488.9375 C 458.371094 489.113281 457.792969 488.957031 457.859375 487.527344 C 457.980469 484.777344 457.960938 482.023438 457.859375 479.273438 C 457.820312 478.121094 458.234375 477.757812 459.285156 477.613281 C 464.863281 476.863281 470.425781 476.070312 476 475.289062 C 482.949219 474.308594 489.902344 473.335938 496.855469 472.351562 C 498.929688 472.058594 501 471.773438 503.066406 471.445312 C 503.734375 471.339844 503.871094 471.605469 503.863281 472.183594 C 503.851562 475.398438 503.84375 478.621094 503.863281 481.835938 C 503.863281 482.488281 503.613281 482.722656 502.984375 482.808594 C 498.191406 483.449219 493.40625 484.15625 488.605469 484.765625 C 487.449219 484.914062 486.972656 485.230469 486.980469 486.539062 C 487.039062 500.203125 486.992188 513.867188 487.046875 527.527344 C 487.046875 528.828125 486.605469 529.160156 485.414062 529.289062 C 482.414062 529.621094 479.421875 530.085938 476.433594 530.539062 C 474.773438 530.792969 474.773438 530.832031 474.773438 529.09375 C 474.773438 522.289062 474.773438 515.476562 474.773438 508.667969 Z M 474.800781 508.667969 " fill-opacity="1" fill-rule="nonzero"/><path fill="#80ba27" d="M 509.753906 498.085938 C 509.753906 489.328125 509.773438 480.5625 509.726562 471.808594 C 509.726562 470.742188 510.03125 470.367188 511.082031 470.238281 C 514.261719 469.855469 517.4375 469.394531 520.605469 468.894531 C 521.722656 468.722656 522.023438 469.03125 522.019531 470.167969 C 521.988281 487.6875 521.988281 505.203125 522.019531 522.722656 C 522.019531 523.785156 521.734375 524.140625 520.644531 524.265625 C 517.601562 524.609375 514.566406 525.101562 511.535156 525.554688 C 509.761719 525.820312 509.761719 525.835938 509.761719 524.085938 C 509.761719 515.417969 509.761719 506.75 509.761719 498.085938 Z M 509.753906 498.085938 " fill-opacity="1" fill-rule="nonzero"/></svg>